<svg width="2480" height="3397" version="1.1" xmlns="http://www.w3.org/2000/svg" desc="Created with imagetracer.js version 1.2.6" ><path fill="rgb(220,208,70)" stroke="rgb(220,208,70)" stroke-width="1" opacity="0.996078431372549" d="M 810.5 902 L 818 902.5 L 810.5 903 L 810.5 902 Z " /><path fill="rgb(220,208,70)" stroke="rgb(220,208,70)" stroke-width="1" opacity="0.996078431372549" d="M 842.5 902 L 852 902.5 L 842.5 903 L 842.5 902 Z " /><path fill="rgb(220,208,70)" stroke="rgb(220,208,70)" stroke-width="1" opacity="0.996078431372549" d="M 1228.5 902 L 1237 902.5 L 1228.5 903 L 1228.5 902 Z " /><path fill="rgb(220,208,70)" stroke="rgb(220,208,70)" stroke-width="1" opacity="0.996078431372549" d="M 1260.5 902 L 1268 902.5 L 1260.5 903 L 1260.5 902 Z " /><path fill="rgb(220,208,70)" stroke="rgb(220,208,70)" stroke-width="1" opacity="0.996078431372549" d="M 1645.5 902 L 1654 902.5 L 1645.5 903 L 1645.5 902 Z " /><path fill="rgb(220,208,70)" stroke="rgb(220,208,70)" stroke-width="1" opacity="0.996078431372549" d="M 1681.5 902 L 1692 902.5 L 1681.5 903 L 1681.5 902 Z " /><path fill="rgb(220,208,70)" stroke="rgb(220,208,70)" stroke-width="1" opacity="0.996078431372549" d="M 799.5 903 L 803 903.5 L 799.5 904 L 799.5 903 Z " /><path fill="rgb(220,208,70)" stroke="rgb(220,208,70)" stroke-width="1" opacity="0.996078431372549" d="M 859.5 903 L 864 903.5 L 859.5 904 L 859.5 903 Z " /><path fill="rgb(220,208,70)" stroke="rgb(220,208,70)" stroke-width="1" opacity="0.996078431372549" d="M 1216.5 903 L 1221 903.5 L 1216.5 904 L 1216.5 903 Z " /><path fill="rgb(220,208,70)" stroke="rgb(220,208,70)" stroke-width="1" opacity="0.996078431372549" d="M 1274.5 903 L 1279 903.5 L 1274.5 904 L 1274.5 903 Z " /><path fill="rgb(220,208,70)" stroke="rgb(220,208,70)" stroke-width="1" opacity="0.996078431372549" d="M 1633.5 903 L 1638 903.5 L 1633.5 904 L 1633.5 903 Z " /><path fill="rgb(220,208,70)" stroke="rgb(220,208,70)" stroke-width="1" opacity="0.996078431372549" d="M 1699.5 903 L 1704 903.5 L 1699.5 904 L 1699.5 903 Z " /><path fill="rgb(220,208,70)" stroke="rgb(220,208,70)" stroke-width="1" opacity="0.996078431372549" d="M 791.5 904 L 794 904.5 L 791.5 905 L 791.5 904 Z " /><path fill="rgb(220,208,70)" stroke="rgb(220,208,70)" stroke-width="1" opacity="0.996078431372549" d="M 868.5 904 L 872 904.5 L 868.5 905 L 868.5 904 Z " /><path fill="rgb(220,208,70)" stroke="rgb(220,208,70)" stroke-width="1" opacity="0.996078431372549" d="M 1208.5 904 L 1212 904.5 L 1208.5 905 L 1208.5 904 Z " /><path fill="rgb(220,208,70)" stroke="rgb(220,208,70)" stroke-width="1" opacity="0.996078431372549" d="M 1283.5 904 L 1286 904.5 L 1283.5 905 L 1283.5 904 Z " /><path fill="rgb(220,208,70)" stroke="rgb(220,208,70)" stroke-width="1" opacity="0.996078431372549" d="M 1625.5 904 L 1629 904.5 L 1625.5 905 L 1625.5 904 Z " /><path fill="rgb(220,208,70)" stroke="rgb(220,208,70)" stroke-width="1" opacity="0.996078431372549" d="M 1709.5 904 L 1713 904.5 L 1709.5 905 L 1709.5 904 Z " /><path fill="rgb(220,208,70)" stroke="rgb(220,208,70)" stroke-width="1" opacity="0.996078431372549" d="M 784.5 905 L 787 905.5 L 784.5 906 L 784.5 905 Z " /><path fill="rgb(220,208,70)" stroke="rgb(220,208,70)" stroke-width="1" opacity="0.996078431372549" d="M 876.5 905 L 879 905.5 L 876.5 906 L 876.5 905 Z " /><path fill="rgb(220,208,70)" stroke="rgb(220,208,70)" stroke-width="1" opacity="0.996078431372549" d="M 1201.5 905 L 1204 905.5 L 1201.5 906 L 1201.5 905 Z " /><path fill="rgb(220,208,70)" stroke="rgb(220,208,70)" stroke-width="1" opacity="0.996078431372549" d="M 1619.5 905 L 1622 905.5 L 1619.5 906 L 1619.5 905 Z " /><path fill="rgb(220,208,70)" stroke="rgb(220,208,70)" stroke-width="1" opacity="0.996078431372549" d="M 1717.5 905 L 1721 905.5 L 1717.5 906 L 1717.5 905 Z " /><path fill="rgb(220,208,70)" stroke="rgb(220,208,70)" stroke-width="1" opacity="0.996078431372549" d="M 777.5 906 L 780 906.5 L 777.5 907 L 777.5 906 Z " /><path fill="rgb(220,208,70)" stroke="rgb(220,208,70)" stroke-width="1" opacity="0.996078431372549" d="M 882.5 906 L 885 906.5 L 882.5 907 L 882.5 906 Z " /><path fill="rgb(220,208,70)" stroke="rgb(220,208,70)" stroke-width="1" opacity="0.996078431372549" d="M 1195.5 906 L 1198 906.5 L 1195.5 907 L 1195.5 906 Z " /><path fill="rgb(220,208,70)" stroke="rgb(220,208,70)" stroke-width="1" opacity="0.996078431372549" d="M 1295.5 906 L 1298 906.5 L 1295.5 907 L 1295.5 906 Z " /><path fill="rgb(220,208,70)" stroke="rgb(220,208,70)" stroke-width="1" opacity="0.996078431372549" d="M 1724.5 906 L 1727 906.5 L 1724.5 907 L 1724.5 906 Z " /><path fill="rgb(220,208,70)" stroke="rgb(220,208,70)" stroke-width="1" opacity="0.996078431372549" d="M 1730.5 907 L 1733 907.5 L 1730.5 908 L 1730.5 907 Z " /><path fill="rgb(220,208,70)" stroke="rgb(220,208,70)" stroke-width="1" opacity="0.996078431372549" d="M 1572.5 921 L 1571.5 923 L 1572.5 921 Z " /><path fill="rgb(220,208,70)" stroke="rgb(220,208,70)" stroke-width="1" opacity="0.996078431372549" d="M 1565.5 925 L 1564.5 927 L 1565.5 925 Z " /><path fill="rgb(220,208,70)" stroke="rgb(220,208,70)" stroke-width="1" opacity="0.996078431372549" d="M 1557.5 930 L 1556.5 932 L 1557.5 930 Z " /><path fill="rgb(220,208,70)" stroke="rgb(220,208,70)" stroke-width="1" opacity="0.996078431372549" d="M 1554.5 932 L 1553.5 934 L 1554.5 932 Z " /><path fill="rgb(220,208,70)" stroke="rgb(220,208,70)" stroke-width="1" opacity="0.996078431372549" d="M 969.5 937 L 970.5 939 L 969.5 937 Z " /><path fill="rgb(220,208,70)" stroke="rgb(220,208,70)" stroke-width="1" opacity="0.996078431372549" d="M 1546.5 937 L 1545.5 939 L 1546.5 937 Z " /><path fill="rgb(220,208,70)" stroke="rgb(220,208,70)" stroke-width="1" opacity="0.996078431372549" d="M 1820.5 939 L 1821.5 941 L 1820.5 939 Z " /><path fill="rgb(220,208,70)" stroke="rgb(220,208,70)" stroke-width="1" opacity="0.996078431372549" d="M 1832.5 947 L 1833.5 949 L 1832.5 947 Z " /><path fill="rgb(220,208,70)" stroke="rgb(220,208,70)" stroke-width="1" opacity="0.996078431372549" d="M 1836.5 950 L 1838.5 953 L 1836.5 950 Z " /><path fill="rgb(220,208,70)" stroke="rgb(220,208,70)" stroke-width="1" opacity="0.996078431372549" d="M 1445.5 952 L 1448 952.5 L 1445.5 953 L 1445.5 952 Z " /><path fill="rgb(220,208,70)" stroke="rgb(220,208,70)" stroke-width="1" opacity="0.996078431372549" d="M 1452.5 953 L 1455 953.5 L 1452.5 954 L 1452.5 953 Z " /><path fill="rgb(220,208,70)" stroke="rgb(220,208,70)" stroke-width="1" opacity="0.996078431372549" d="M 1503.5 953 L 1506 953.5 L 1503.5 954 L 1503.5 953 Z " /><path fill="rgb(220,208,70)" stroke="rgb(220,208,70)" stroke-width="1" opacity="0.996078431372549" d="M 639.5 954 L 639 955.5 L 639 1090.5 L 640 1091.5 L 638 1092 L 638 955.5 L 639.5 954 Z " /><path fill="rgb(220,208,70)" stroke="rgb(220,208,70)" stroke-width="1" opacity="0.996078431372549" d="M 1460.5 954 L 1465 954.5 L 1460.5 955 L 1460.5 954 Z " /><path fill="rgb(220,208,70)" stroke="rgb(220,208,70)" stroke-width="1" opacity="0.996078431372549" d="M 1495.5 954 L 1499 954.5 L 1495.5 955 L 1495.5 954 Z " /><path fill="rgb(220,208,70)" stroke="rgb(220,208,70)" stroke-width="1" opacity="0.996078431372549" d="M 1474.5 955 L 1486 955.5 L 1474.5 956 L 1474.5 955 Z " /><path fill="rgb(220,208,70)" stroke="rgb(220,208,70)" stroke-width="1" opacity="0.996078431372549" d="M 1601.5 976 L 1602.5 978 L 1601.5 976 Z " /><path fill="rgb(220,208,70)" stroke="rgb(220,208,70)" stroke-width="1" opacity="0.996078431372549" d="M 818.5 1032 L 832 1032.5 L 818.5 1033 L 818.5 1032 Z " /><path fill="rgb(220,208,70)" stroke="rgb(220,208,70)" stroke-width="1" opacity="0.996078431372549" d="M 802.5 1033 L 808 1033.5 L 802.5 1034 L 802.5 1033 Z " /><path fill="rgb(220,208,70)" stroke="rgb(220,208,70)" stroke-width="1" opacity="0.996078431372549" d="M 841.5 1033 L 846 1033.5 L 841.5 1034 L 841.5 1033 Z " /><path fill="rgb(220,208,70)" stroke="rgb(220,208,70)" stroke-width="1" opacity="0.996078431372549" d="M 1674.5 1033 L 1677 1033.5 L 1674.5 1034 L 1674.5 1033 Z " /><path fill="rgb(220,208,70)" stroke="rgb(220,208,70)" stroke-width="1" opacity="0.996078431372549" d="M 793.5 1034 L 797 1034.5 L 793.5 1035 L 793.5 1034 Z " /><path fill="rgb(220,208,70)" stroke="rgb(220,208,70)" stroke-width="1" opacity="0.996078431372549" d="M 851.5 1034 L 854 1034.5 L 851.5 1035 L 851.5 1034 Z " /><path fill="rgb(220,208,70)" stroke="rgb(220,208,70)" stroke-width="1" opacity="0.996078431372549" d="M 1229.5 1034 L 1236 1034.5 L 1229.5 1035 L 1229.5 1034 Z " /><path fill="rgb(220,208,70)" stroke="rgb(220,208,70)" stroke-width="1" opacity="0.996078431372549" d="M 1272.5 1034 L 1279 1034.5 L 1272.5 1035 L 1272.5 1034 Z " /><path fill="rgb(220,208,70)" stroke="rgb(220,208,70)" stroke-width="1" opacity="0.996078431372549" d="M 1655.5 1034 L 1660 1034.5 L 1655.5 1035 L 1655.5 1034 Z " /><path fill="rgb(220,208,70)" stroke="rgb(220,208,70)" stroke-width="1" opacity="0.996078431372549" d="M 1691.5 1034 L 1697 1034.5 L 1691.5 1035 L 1691.5 1034 Z " /><path fill="rgb(220,208,70)" stroke="rgb(220,208,70)" stroke-width="1" opacity="0.996078431372549" d="M 786.5 1035 L 789 1035.5 L 786.5 1036 L 786.5 1035 Z " /><path fill="rgb(220,208,70)" stroke="rgb(220,208,70)" stroke-width="1" opacity="0.996078431372549" d="M 857.5 1035 L 860 1035.5 L 857.5 1036 L 857.5 1035 Z " /><path fill="rgb(220,208,70)" stroke="rgb(220,208,70)" stroke-width="1" opacity="0.996078431372549" d="M 1218.5 1035 L 1223 1035.5 L 1218.5 1036 L 1218.5 1035 Z " /><path fill="rgb(220,208,70)" stroke="rgb(220,208,70)" stroke-width="1" opacity="0.996078431372549" d="M 1285.5 1035 L 1289 1035.5 L 1285.5 1036 L 1285.5 1035 Z " /><path fill="rgb(220,208,70)" stroke="rgb(220,208,70)" stroke-width="1" opacity="0.996078431372549" d="M 1647.5 1035 L 1650 1035.5 L 1647.5 1036 L 1647.5 1035 Z " /><path fill="rgb(220,208,70)" stroke="rgb(220,208,70)" stroke-width="1" opacity="0.996078431372549" d="M 1702.5 1035 L 1706 1035.5 L 1702.5 1036 L 1702.5 1035 Z " /><path fill="rgb(220,208,70)" stroke="rgb(220,208,70)" stroke-width="1" opacity="0.996078431372549" d="M 780.5 1036 L 783 1036.5 L 780.5 1037 L 780.5 1036 Z " /><path fill="rgb(220,208,70)" stroke="rgb(220,208,70)" stroke-width="1" opacity="0.996078431372549" d="M 1211.5 1036 L 1214 1036.5 L 1211.5 1037 L 1211.5 1036 Z " /><path fill="rgb(220,208,70)" stroke="rgb(220,208,70)" stroke-width="1" opacity="0.996078431372549" d="M 1293.5 1036 L 1296 1036.5 L 1293.5 1037 L 1293.5 1036 Z " /><path fill="rgb(220,208,70)" stroke="rgb(220,208,70)" stroke-width="1" opacity="0.996078431372549" d="M 1711.5 1036 L 1714 1036.5 L 1711.5 1037 L 1711.5 1036 Z " /><path fill="rgb(220,208,70)" stroke="rgb(220,208,70)" stroke-width="1" opacity="0.996078431372549" d="M 1717.5 1037 L 1720 1037.5 L 1717.5 1038 L 1717.5 1037 Z " /><path fill="rgb(220,208,70)" stroke="rgb(220,208,70)" stroke-width="1" opacity="0.996078431372549" d="M 1305.5 1038 L 1308 1038.5 L 1305.5 1039 L 1305.5 1038 Z " /><path fill="rgb(220,208,70)" stroke="rgb(220,208,70)" stroke-width="1" opacity="0.996078431372549" d="M 1596.5 1052 L 1595.5 1054 L 1596.5 1052 Z " /><path fill="rgb(220,208,70)" stroke="rgb(220,208,70)" stroke-width="1" opacity="0.996078431372549" d="M 912.5 1054 L 913.5 1056 L 912.5 1054 Z " /><path fill="rgb(220,208,70)" stroke="rgb(220,208,70)" stroke-width="1" opacity="0.996078431372549" d="M 1589.5 1056 L 1588.5 1058 L 1589.5 1056 Z " /><path fill="rgb(220,208,70)" stroke="rgb(220,208,70)" stroke-width="1" opacity="0.996078431372549" d="M 927.5 1062 L 928.5 1064 L 927.5 1062 Z " /><path fill="rgb(220,208,70)" stroke="rgb(220,208,70)" stroke-width="1" opacity="0.996078431372549" d="M 1567.5 1069 L 1566.5 1071 L 1565 1070.5 L 1567.5 1069 Z " /><path fill="rgb(220,208,70)" stroke="rgb(220,208,70)" stroke-width="1" opacity="0.996078431372549" d="M 665.5 1076 L 664.5 1078 L 665.5 1076 Z " /><path fill="rgb(220,208,70)" stroke="rgb(220,208,70)" stroke-width="1" opacity="0.996078431372549" d="M 1820.5 1076 L 1821.5 1078 L 1820.5 1076 Z " /><path fill="rgb(220,208,70)" stroke="rgb(220,208,70)" stroke-width="1" opacity="0.996078431372549" d="M 1823.5 1078 L 1824.5 1080 L 1823.5 1078 Z " /><path fill="rgb(220,208,70)" stroke="rgb(220,208,70)" stroke-width="1" opacity="0.996078431372549" d="M 1826.5 1080 L 1827.5 1082 L 1826.5 1080 Z " /><path fill="rgb(220,208,70)" stroke="rgb(220,208,70)" stroke-width="1" opacity="0.996078431372549" d="M 1829.5 1082 L 1830.5 1084 L 1829.5 1082 Z " /><path fill="rgb(220,208,70)" stroke="rgb(220,208,70)" stroke-width="1" opacity="0.996078431372549" d="M 1833.5 1085 L 1834.5 1087 L 1833.5 1085 Z " /><path fill="rgb(220,208,70)" stroke="rgb(220,208,70)" stroke-width="1" opacity="0.996078431372549" d="M 1837.5 1088 L 1838.5 1090 L 1837.5 1088 Z " /><path fill="rgb(220,208,70)" stroke="rgb(220,208,70)" stroke-width="1" opacity="0.996078431372549" d="M 813.5 1219 L 827 1219.5 L 813.5 1220 L 813.5 1219 Z " /><path fill="rgb(220,208,70)" stroke="rgb(220,208,70)" stroke-width="1" opacity="0.996078431372549" d="M 831.5 1219 L 848 1219.5 L 831.5 1220 L 831.5 1219 Z " /><path fill="rgb(220,208,70)" stroke="rgb(220,208,70)" stroke-width="1" opacity="0.996078431372549" d="M 1648.5 1219 L 1666 1219.5 L 1648.5 1220 L 1648.5 1219 Z " /><path fill="rgb(220,208,70)" stroke="rgb(220,208,70)" stroke-width="1" opacity="0.996078431372549" d="M 1670.5 1219 L 1688 1219.5 L 1670.5 1220 L 1670.5 1219 Z " /><path fill="rgb(220,208,70)" stroke="rgb(220,208,70)" stroke-width="1" opacity="0.996078431372549" d="M 801.5 1220 L 806 1220.5 L 801.5 1221 L 801.5 1220 Z " /><path fill="rgb(220,208,70)" stroke="rgb(220,208,70)" stroke-width="1" opacity="0.996078431372549" d="M 856.5 1220 L 862 1220.5 L 856.5 1221 L 856.5 1220 Z " /><path fill="rgb(220,208,70)" stroke="rgb(220,208,70)" stroke-width="1" opacity="0.996078431372549" d="M 1635.5 1220 L 1640 1220.5 L 1635.5 1221 L 1635.5 1220 Z " /><path fill="rgb(220,208,70)" stroke="rgb(220,208,70)" stroke-width="1" opacity="0.996078431372549" d="M 1696.5 1220 L 1702 1220.5 L 1696.5 1221 L 1696.5 1220 Z " /><path fill="rgb(220,208,70)" stroke="rgb(220,208,70)" stroke-width="1" opacity="0.996078431372549" d="M 792.5 1221 L 796 1221.5 L 792.5 1222 L 792.5 1221 Z " /><path fill="rgb(220,208,70)" stroke="rgb(220,208,70)" stroke-width="1" opacity="0.996078431372549" d="M 867.5 1221 L 870 1221.5 L 867.5 1222 L 867.5 1221 Z " /><path fill="rgb(220,208,70)" stroke="rgb(220,208,70)" stroke-width="1" opacity="0.996078431372549" d="M 1627.5 1221 L 1630 1221.5 L 1627.5 1222 L 1627.5 1221 Z " /><path fill="rgb(220,208,70)" stroke="rgb(220,208,70)" stroke-width="1" opacity="0.996078431372549" d="M 1707.5 1221 L 1712 1221.5 L 1707.5 1222 L 1707.5 1221 Z " /><path fill="rgb(220,208,70)" stroke="rgb(220,208,70)" stroke-width="1" opacity="0.996078431372549" d="M 785.5 1222 L 788 1222.5 L 785.5 1223 L 785.5 1222 Z " /><path fill="rgb(220,208,70)" stroke="rgb(220,208,70)" stroke-width="1" opacity="0.996078431372549" d="M 874.5 1222 L 877 1222.5 L 874.5 1223 L 874.5 1222 Z " /><path fill="rgb(220,208,70)" stroke="rgb(220,208,70)" stroke-width="1" opacity="0.996078431372549" d="M 1620.5 1222 L 1623 1222.5 L 1620.5 1223 L 1620.5 1222 Z " /><path fill="rgb(220,208,70)" stroke="rgb(220,208,70)" stroke-width="1" opacity="0.996078431372549" d="M 1716.5 1222 L 1719 1222.5 L 1716.5 1223 L 1716.5 1222 Z " /><path fill="rgb(220,208,70)" stroke="rgb(220,208,70)" stroke-width="1" opacity="0.996078431372549" d="M 1723.5 1223 L 1726 1223.5 L 1723.5 1224 L 1723.5 1223 Z " /><path fill="rgb(220,208,70)" stroke="rgb(220,208,70)" stroke-width="1" opacity="0.996078431372549" d="M 1729.5 1224 L 1732 1224.5 L 1729.5 1225 L 1729.5 1224 Z " /><path fill="rgb(220,208,70)" stroke="rgb(220,208,70)" stroke-width="1" opacity="0.996078431372549" d="M 1567.5 1241 L 1566.5 1243 L 1567.5 1241 Z " /><path fill="rgb(220,208,70)" stroke="rgb(220,208,70)" stroke-width="1" opacity="0.996078431372549" d="M 1559.5 1246 L 1558.5 1248 L 1559.5 1246 Z " /><path fill="rgb(220,208,70)" stroke="rgb(220,208,70)" stroke-width="1" opacity="0.996078431372549" d="M 1551.5 1251 L 1550.5 1253 L 1551.5 1251 Z " /><path fill="rgb(220,208,70)" stroke="rgb(220,208,70)" stroke-width="1" opacity="0.996078431372549" d="M 1818.5 1255 L 1819.5 1257 L 1818.5 1255 Z " /><path fill="rgb(220,208,70)" stroke="rgb(220,208,70)" stroke-width="1" opacity="0.996078431372549" d="M 1826.5 1260 L 1827.5 1262 L 1826.5 1260 Z " /><path fill="rgb(220,208,70)" stroke="rgb(220,208,70)" stroke-width="1" opacity="0.996078431372549" d="M 1829.5 1262 L 1830.5 1264 L 1829.5 1262 Z " /><path fill="rgb(220,208,70)" stroke="rgb(220,208,70)" stroke-width="1" opacity="0.996078431372549" d="M 1334.5 1263 Q 1336.8 1262.3 1336 1264.5 L 1334.5 1263 Z " /><path fill="rgb(220,208,70)" stroke="rgb(220,208,70)" stroke-width="1" opacity="0.996078431372549" d="M 1833.5 1265 L 1834.5 1267 L 1833.5 1265 Z " /><path fill="rgb(220,208,70)" stroke="rgb(220,208,70)" stroke-width="1" opacity="0.996078431372549" d="M 1837.5 1268 L 1839.5 1271 L 1837.5 1268 Z " /><path fill="rgb(220,208,70)" stroke="rgb(220,208,70)" stroke-width="1" opacity="0.996078431372549" d="M 1497.5 1271 L 1501 1271.5 L 1497.5 1272 L 1497.5 1271 Z " /><path fill="rgb(220,208,70)" stroke="rgb(220,208,70)" stroke-width="1" opacity="0.996078431372549" d="M 638.5 1272 L 639 1407.5 L 640 1408.5 L 638 1409 L 638.5 1272 Z " /><path fill="rgb(220,208,70)" stroke="rgb(220,208,70)" stroke-width="1" opacity="0.996078431372549" d="M 1485.5 1272 L 1490 1272.5 L 1484.5 1274 L 1485.5 1272 Z " /><path fill="rgb(220,208,70)" stroke="rgb(220,208,70)" stroke-width="1" opacity="0.996078431372549" d="M 806.5 1350 L 813 1350.5 L 806.5 1351 L 806.5 1350 Z " /><path fill="rgb(220,208,70)" stroke="rgb(220,208,70)" stroke-width="1" opacity="0.996078431372549" d="M 837.5 1350 L 841 1350.5 L 837.5 1351 L 837.5 1350 Z " /><path fill="rgb(220,208,70)" stroke="rgb(220,208,70)" stroke-width="1" opacity="0.996078431372549" d="M 796.5 1351 L 800 1351.5 L 796.5 1352 L 796.5 1351 Z " /><path fill="rgb(220,208,70)" stroke="rgb(220,208,70)" stroke-width="1" opacity="0.996078431372549" d="M 1231.5 1351 L 1239 1351.5 L 1231.5 1352 L 1231.5 1351 Z " /><path fill="rgb(220,208,70)" stroke="rgb(220,208,70)" stroke-width="1" opacity="0.996078431372549" d="M 1268.5 1351 L 1277 1351.5 L 1268.5 1352 L 1268.5 1351 Z " /><path fill="rgb(220,208,70)" stroke="rgb(220,208,70)" stroke-width="1" opacity="0.996078431372549" d="M 1657.5 1351 L 1663 1351.5 L 1657.5 1352 L 1657.5 1351 Z " /><path fill="rgb(220,208,70)" stroke="rgb(220,208,70)" stroke-width="1" opacity="0.996078431372549" d="M 1688.5 1351 L 1696 1351.5 L 1688.5 1352 L 1688.5 1351 Z " /><path fill="rgb(220,208,70)" stroke="rgb(220,208,70)" stroke-width="1" opacity="0.996078431372549" d="M 788.5 1352 L 791 1352.5 L 788.5 1353 L 788.5 1352 Z " /><path fill="rgb(220,208,70)" stroke="rgb(220,208,70)" stroke-width="1" opacity="0.996078431372549" d="M 1220.5 1352 L 1224 1352.5 L 1220.5 1353 L 1220.5 1352 Z " /><path fill="rgb(220,208,70)" stroke="rgb(220,208,70)" stroke-width="1" opacity="0.996078431372549" d="M 1283.5 1352 L 1287 1352.5 L 1283.5 1353 L 1283.5 1352 Z " /><path fill="rgb(220,208,70)" stroke="rgb(220,208,70)" stroke-width="1" opacity="0.996078431372549" d="M 1648.5 1352 L 1652 1352.5 L 1648.5 1353 L 1648.5 1352 Z " /><path fill="rgb(220,208,70)" stroke="rgb(220,208,70)" stroke-width="1" opacity="0.996078431372549" d="M 1702.5 1352 L 1706 1352.5 L 1702.5 1353 L 1702.5 1352 Z " /><path fill="rgb(220,208,70)" stroke="rgb(220,208,70)" stroke-width="1" opacity="0.996078431372549" d="M 782.5 1353 L 785 1353.5 L 782.5 1354 L 782.5 1353 Z " /><path fill="rgb(220,208,70)" stroke="rgb(220,208,70)" stroke-width="1" opacity="0.996078431372549" d="M 1212.5 1353 L 1215 1353.5 L 1212.5 1354 L 1212.5 1353 Z " /><path fill="rgb(220,208,70)" stroke="rgb(220,208,70)" stroke-width="1" opacity="0.996078431372549" d="M 1292.5 1353 L 1295 1353.5 L 1292.5 1354 L 1292.5 1353 Z " /><path fill="rgb(220,208,70)" stroke="rgb(220,208,70)" stroke-width="1" opacity="0.996078431372549" d="M 1642.5 1353 L 1645 1353.5 L 1642.5 1354 L 1642.5 1353 Z " /><path fill="rgb(220,208,70)" stroke="rgb(220,208,70)" stroke-width="1" opacity="0.996078431372549" d="M 1710.5 1353 L 1713 1353.5 L 1710.5 1354 L 1710.5 1353 Z " /><path fill="rgb(220,208,70)" stroke="rgb(220,208,70)" stroke-width="1" opacity="0.996078431372549" d="M 776.5 1354 L 779 1354.5 L 776.5 1355 L 776.5 1354 Z " /><path fill="rgb(220,208,70)" stroke="rgb(220,208,70)" stroke-width="1" opacity="0.996078431372549" d="M 1717.5 1354 L 1720 1354.5 L 1717.5 1355 L 1717.5 1354 Z " /><path fill="rgb(220,208,70)" stroke="rgb(220,208,70)" stroke-width="1" opacity="0.996078431372549" d="M 1304.5 1355 L 1307 1355.5 L 1304.5 1356 L 1304.5 1355 Z " /><path fill="rgb(220,208,70)" stroke="rgb(220,208,70)" stroke-width="1" opacity="0.996078431372549" d="M 1309.5 1356 L 1312 1356.5 L 1309.5 1357 L 1309.5 1356 Z " /><path fill="rgb(220,208,70)" stroke="rgb(220,208,70)" stroke-width="1" opacity="0.996078431372549" d="M 1314.5 1357 L 1317 1357.5 L 1314.5 1358 L 1314.5 1357 Z " /><path fill="rgb(220,208,70)" stroke="rgb(220,208,70)" stroke-width="1" opacity="0.996078431372549" d="M 1586.5 1375 L 1585.5 1377 L 1586.5 1375 Z " /><path fill="rgb(220,208,70)" stroke="rgb(220,208,70)" stroke-width="1" opacity="0.996078431372549" d="M 1581.5 1378 L 1580.5 1380 L 1581.5 1378 Z " /><path fill="rgb(220,208,70)" stroke="rgb(220,208,70)" stroke-width="1" opacity="0.996078431372549" d="M 1576.5 1381 L 1575.5 1383 L 1576.5 1381 Z " /><path fill="rgb(220,208,70)" stroke="rgb(220,208,70)" stroke-width="1" opacity="0.996078431372549" d="M 1803.5 1383 L 1804.5 1385 L 1803.5 1383 Z " /><path fill="rgb(220,208,70)" stroke="rgb(220,208,70)" stroke-width="1" opacity="0.996078431372549" d="M 1562.5 1389 L 1561.5 1391 L 1562.5 1389 Z " /><path fill="rgb(220,208,70)" stroke="rgb(220,208,70)" stroke-width="1" opacity="0.996078431372549" d="M 1820.5 1393 L 1821.5 1395 L 1820.5 1393 Z " /><path fill="rgb(220,208,70)" stroke="rgb(220,208,70)" stroke-width="1" opacity="0.996078431372549" d="M 1823.5 1395 L 1824.5 1397 L 1823.5 1395 Z " /><path fill="rgb(220,208,70)" stroke="rgb(220,208,70)" stroke-width="1" opacity="0.996078431372549" d="M 1826.5 1397 L 1827.5 1399 L 1826.5 1397 Z " /><path fill="rgb(220,208,70)" stroke="rgb(220,208,70)" stroke-width="1" opacity="0.996078431372549" d="M 656.5 1398 L 655.5 1400 L 656.5 1398 Z " /><path fill="rgb(220,208,70)" stroke="rgb(220,208,70)" stroke-width="1" opacity="0.996078431372549" d="M 1833.5 1402 L 1834.5 1404 L 1833.5 1402 Z " /><path fill="rgb(220,208,70)" stroke="rgb(220,208,70)" stroke-width="1" opacity="0.996078431372549" d="M 1057.5 1406 L 1060 1406.5 L 1057.5 1407 L 1057.5 1406 Z " /><path fill="rgb(220,208,70)" stroke="rgb(220,208,70)" stroke-width="1" opacity="0.996078431372549" d="M 1513.5 1406 L 1516 1406.5 L 1513.5 1407 L 1513.5 1406 Z " /><path fill="rgb(220,208,70)" stroke="rgb(220,208,70)" stroke-width="1" opacity="0.996078431372549" d="M 1838.5 1406 L 1839.5 1408 L 1838.5 1406 Z " /><path fill="rgb(220,208,70)" stroke="rgb(220,208,70)" stroke-width="1" opacity="0.996078431372549" d="M 1050.5 1407 L 1054 1407.5 L 1050.5 1408 L 1050.5 1407 Z " /><path fill="rgb(220,208,70)" stroke="rgb(220,208,70)" stroke-width="1" opacity="0.996078431372549" d="M 1451.5 1407 L 1455 1407.5 L 1451.5 1408 L 1451.5 1407 Z " /><path fill="rgb(220,208,70)" stroke="rgb(220,208,70)" stroke-width="1" opacity="0.996078431372549" d="M 1506.5 1407 L 1509 1407.5 L 1506.5 1408 L 1506.5 1407 Z " /><path fill="rgb(220,208,70)" stroke="rgb(220,208,70)" stroke-width="1" opacity="0.996078431372549" d="M 1008.5 1408 L 1015 1408.5 L 1008.5 1409 L 1008.5 1408 Z " /><path fill="rgb(220,208,70)" stroke="rgb(220,208,70)" stroke-width="1" opacity="0.996078431372549" d="M 1039.5 1408 L 1045 1408.5 L 1039.5 1409 L 1039.5 1408 Z " /><path fill="rgb(220,208,70)" stroke="rgb(220,208,70)" stroke-width="1" opacity="0.996078431372549" d="M 1460.5 1408 L 1467 1408.5 L 1460.5 1409 L 1460.5 1408 Z " /><path fill="rgb(220,208,70)" stroke="rgb(220,208,70)" stroke-width="1" opacity="0.996078431372549" d="M 1494.5 1408 L 1500 1408.5 L 1494.5 1409 L 1494.5 1408 Z " /><path fill="rgb(220,208,70)" stroke="rgb(220,208,70)" stroke-width="1" opacity="0.996078431372549" d="M 810.5 1536 L 819 1536.5 L 810.5 1537 L 810.5 1536 Z " /><path fill="rgb(220,208,70)" stroke="rgb(220,208,70)" stroke-width="1" opacity="0.996078431372549" d="M 841.5 1536 L 851 1536.5 L 841.5 1537 L 841.5 1536 Z " /><path fill="rgb(220,208,70)" stroke="rgb(220,208,70)" stroke-width="1" opacity="0.996078431372549" d="M 1228.5 1536 L 1237 1536.5 L 1228.5 1537 L 1228.5 1536 Z " /><path fill="rgb(220,208,70)" stroke="rgb(220,208,70)" stroke-width="1" opacity="0.996078431372549" d="M 1259.5 1536 L 1268 1536.5 L 1259.5 1537 L 1259.5 1536 Z " /><path fill="rgb(220,208,70)" stroke="rgb(220,208,70)" stroke-width="1" opacity="0.996078431372549" d="M 1645.5 1536 L 1655 1536.5 L 1645.5 1537 L 1645.5 1536 Z " /><path fill="rgb(220,208,70)" stroke="rgb(220,208,70)" stroke-width="1" opacity="0.996078431372549" d="M 1681.5 1536 L 1691 1536.5 L 1681.5 1537 L 1681.5 1536 Z " /><path fill="rgb(220,208,70)" stroke="rgb(220,208,70)" stroke-width="1" opacity="0.996078431372549" d="M 799.5 1537 L 804 1537.5 L 799.5 1538 L 799.5 1537 Z " /><path fill="rgb(220,208,70)" stroke="rgb(220,208,70)" stroke-width="1" opacity="0.996078431372549" d="M 858.5 1537 L 863 1537.5 L 858.5 1538 L 858.5 1537 Z " /><path fill="rgb(220,208,70)" stroke="rgb(220,208,70)" stroke-width="1" opacity="0.996078431372549" d="M 1216.5 1537 L 1221 1537.5 L 1216.5 1538 L 1216.5 1537 Z " /><path fill="rgb(220,208,70)" stroke="rgb(220,208,70)" stroke-width="1" opacity="0.996078431372549" d="M 1274.5 1537 L 1278 1537.5 L 1274.5 1538 L 1274.5 1537 Z " /><path fill="rgb(220,208,70)" stroke="rgb(220,208,70)" stroke-width="1" opacity="0.996078431372549" d="M 1633.5 1537 L 1638 1537.5 L 1633.5 1538 L 1633.5 1537 Z " /><path fill="rgb(220,208,70)" stroke="rgb(220,208,70)" stroke-width="1" opacity="0.996078431372549" d="M 1699.5 1537 L 1704 1537.5 L 1699.5 1538 L 1699.5 1537 Z " /><path fill="rgb(220,208,70)" stroke="rgb(220,208,70)" stroke-width="1" opacity="0.996078431372549" d="M 791.5 1538 L 794 1538.5 L 791.5 1539 L 791.5 1538 Z " /><path fill="rgb(220,208,70)" stroke="rgb(220,208,70)" stroke-width="1" opacity="0.996078431372549" d="M 868.5 1538 L 872 1538.5 L 868.5 1539 L 868.5 1538 Z " /><path fill="rgb(220,208,70)" stroke="rgb(220,208,70)" stroke-width="1" opacity="0.996078431372549" d="M 1208.5 1538 L 1212 1538.5 L 1208.5 1539 L 1208.5 1538 Z " /><path fill="rgb(220,208,70)" stroke="rgb(220,208,70)" stroke-width="1" opacity="0.996078431372549" d="M 1626.5 1538 L 1629 1538.5 L 1626.5 1539 L 1626.5 1538 Z " /><path fill="rgb(220,208,70)" stroke="rgb(220,208,70)" stroke-width="1" opacity="0.996078431372549" d="M 1709.5 1538 L 1713 1538.5 L 1709.5 1539 L 1709.5 1538 Z " /><path fill="rgb(220,208,70)" stroke="rgb(220,208,70)" stroke-width="1" opacity="0.996078431372549" d="M 784.5 1539 L 787 1539.5 L 784.5 1540 L 784.5 1539 Z " /><path fill="rgb(220,208,70)" stroke="rgb(220,208,70)" stroke-width="1" opacity="0.996078431372549" d="M 876.5 1539 L 879 1539.5 L 876.5 1540 L 876.5 1539 Z " /><path fill="rgb(220,208,70)" stroke="rgb(220,208,70)" stroke-width="1" opacity="0.996078431372549" d="M 1201.5 1539 L 1204 1539.5 L 1201.5 1540 L 1201.5 1539 Z " /><path fill="rgb(220,208,70)" stroke="rgb(220,208,70)" stroke-width="1" opacity="0.996078431372549" d="M 1619.5 1539 L 1622 1539.5 L 1619.5 1540 L 1619.5 1539 Z " /><path fill="rgb(220,208,70)" stroke="rgb(220,208,70)" stroke-width="1" opacity="0.996078431372549" d="M 1717.5 1539 L 1721 1539.5 L 1717.5 1540 L 1717.5 1539 Z " /><path fill="rgb(220,208,70)" stroke="rgb(220,208,70)" stroke-width="1" opacity="0.996078431372549" d="M 1195.5 1540 L 1198 1540.5 L 1195.5 1541 L 1195.5 1540 Z " /><path fill="rgb(220,208,70)" stroke="rgb(220,208,70)" stroke-width="1" opacity="0.996078431372549" d="M 1724.5 1540 L 1727 1540.5 L 1724.5 1541 L 1724.5 1540 Z " /><path fill="rgb(220,208,70)" stroke="rgb(220,208,70)" stroke-width="1" opacity="0.996078431372549" d="M 887.5 1541 L 890 1541.5 L 887.5 1542 L 887.5 1541 Z " /><path fill="rgb(220,208,70)" stroke="rgb(220,208,70)" stroke-width="1" opacity="0.996078431372549" d="M 1730.5 1541 L 1733 1541.5 L 1730.5 1542 L 1730.5 1541 Z " /><path fill="rgb(220,208,70)" stroke="rgb(220,208,70)" stroke-width="1" opacity="0.996078431372549" d="M 1554.5 1566 L 1553.5 1568 L 1554.5 1566 Z " /><path fill="rgb(220,208,70)" stroke="rgb(220,208,70)" stroke-width="1" opacity="0.996078431372549" d="M 1546.5 1571 L 1545.5 1573 L 1546.5 1571 Z " /><path fill="rgb(220,208,70)" stroke="rgb(220,208,70)" stroke-width="1" opacity="0.996078431372549" d="M 1823.5 1575 L 1824.5 1577 L 1823.5 1575 Z " /><path fill="rgb(220,208,70)" stroke="rgb(220,208,70)" stroke-width="1" opacity="0.996078431372549" d="M 1826.5 1577 L 1827.5 1579 L 1826.5 1577 Z " /><path fill="rgb(220,208,70)" stroke="rgb(220,208,70)" stroke-width="1" opacity="0.996078431372549" d="M 1829.5 1579 L 1830.5 1581 L 1829.5 1579 Z " /><path fill="rgb(220,208,70)" stroke="rgb(220,208,70)" stroke-width="1" opacity="0.996078431372549" d="M 1439.5 1585 L 1442 1585.5 L 1439.5 1586 L 1439.5 1585 Z " /><path fill="rgb(220,208,70)" stroke="rgb(220,208,70)" stroke-width="1" opacity="0.996078431372549" d="M 1837.5 1585 L 1838.5 1587 L 1837.5 1585 Z " /><path fill="rgb(220,208,70)" stroke="rgb(220,208,70)" stroke-width="1" opacity="0.996078431372549" d="M 641.5 1587 L 640.5 1589 L 641.5 1587 Z " /><path fill="rgb(220,208,70)" stroke="rgb(220,208,70)" stroke-width="1" opacity="0.996078431372549" d="M 1046.5 1587 L 1049 1587.5 L 1046.5 1588 L 1046.5 1587 Z " /><path fill="rgb(220,208,70)" stroke="rgb(220,208,70)" stroke-width="1" opacity="0.996078431372549" d="M 1451.5 1587 L 1454 1587.5 L 1451.5 1588 L 1451.5 1587 Z " /><path fill="rgb(220,208,70)" stroke="rgb(220,208,70)" stroke-width="1" opacity="0.996078431372549" d="M 1504.5 1587 L 1507 1587.5 L 1504.5 1588 L 1504.5 1587 Z " /><path fill="rgb(220,208,70)" stroke="rgb(220,208,70)" stroke-width="1" opacity="0.996078431372549" d="M 1014.5 1588 L 1017 1588.5 L 1014.5 1589 L 1014.5 1588 Z " /><path fill="rgb(220,208,70)" stroke="rgb(220,208,70)" stroke-width="1" opacity="0.996078431372549" d="M 1040.5 1588 L 1043 1588.5 L 1040.5 1589 L 1040.5 1588 Z " /><path fill="rgb(220,208,70)" stroke="rgb(220,208,70)" stroke-width="1" opacity="0.996078431372549" d="M 1459.5 1588 L 1464 1588.5 L 1459.5 1589 L 1459.5 1588 Z " /><path fill="rgb(220,208,70)" stroke="rgb(220,208,70)" stroke-width="1" opacity="0.996078431372549" d="M 1496.5 1588 L 1500 1588.5 L 1496.5 1589 L 1496.5 1588 Z " /><path fill="rgb(220,208,70)" stroke="rgb(220,208,70)" stroke-width="1" opacity="0.996078431372549" d="M 638.5 1589 L 639 1726.5 L 638 1726.5 L 638.5 1589 Z " /><path fill="rgb(220,208,70)" stroke="rgb(220,208,70)" stroke-width="1" opacity="0.996078431372549" d="M 1023.5 1589 L 1034 1589.5 L 1023.5 1590 L 1023.5 1589 Z " /><path fill="rgb(220,208,70)" stroke="rgb(220,208,70)" stroke-width="1" opacity="0.996078431372549" d="M 1472.5 1589 L 1489 1589.5 L 1472.5 1590 L 1472.5 1589 Z " /><path fill="rgb(220,208,70)" stroke="rgb(220,208,70)" stroke-width="1" opacity="0.996078431372549" d="M 1269.5 1594 L 1270 1596.5 L 1269 1596.5 L 1269.5 1594 Z " /><path fill="rgb(220,208,70)" stroke="rgb(220,208,70)" stroke-width="1" opacity="0.996078431372549" d="M 805.5 1667 L 812 1667.5 L 805.5 1668 L 805.5 1667 Z " /><path fill="rgb(220,208,70)" stroke="rgb(220,208,70)" stroke-width="1" opacity="0.996078431372549" d="M 837.5 1667 L 844 1667.5 L 837.5 1668 L 837.5 1667 Z " /><path fill="rgb(220,208,70)" stroke="rgb(220,208,70)" stroke-width="1" opacity="0.996078431372549" d="M 795.5 1668 L 800 1668.5 L 795.5 1669 L 795.5 1668 Z " /><path fill="rgb(220,208,70)" stroke="rgb(220,208,70)" stroke-width="1" opacity="0.996078431372549" d="M 848.5 1668 L 852 1668.5 L 848.5 1669 L 848.5 1668 Z " /><path fill="rgb(220,208,70)" stroke="rgb(220,208,70)" stroke-width="1" opacity="0.996078431372549" d="M 1231.5 1668 L 1239 1668.5 L 1231.5 1669 L 1231.5 1668 Z " /><path fill="rgb(220,208,70)" stroke="rgb(220,208,70)" stroke-width="1" opacity="0.996078431372549" d="M 1657.5 1668 L 1663 1668.5 L 1657.5 1669 L 1657.5 1668 Z " /><path fill="rgb(220,208,70)" stroke="rgb(220,208,70)" stroke-width="1" opacity="0.996078431372549" d="M 1688.5 1668 L 1695 1668.5 L 1688.5 1669 L 1688.5 1668 Z " /><path fill="rgb(220,208,70)" stroke="rgb(220,208,70)" stroke-width="1" opacity="0.996078431372549" d="M 788.5 1669 L 791 1669.5 L 788.5 1670 L 788.5 1669 Z " /><path fill="rgb(220,208,70)" stroke="rgb(220,208,70)" stroke-width="1" opacity="0.996078431372549" d="M 855.5 1669 L 858 1669.5 L 855.5 1670 L 855.5 1669 Z " /><path fill="rgb(220,208,70)" stroke="rgb(220,208,70)" stroke-width="1" opacity="0.996078431372549" d="M 1220.5 1669 L 1225 1669.5 L 1220.5 1670 L 1220.5 1669 Z " /><path fill="rgb(220,208,70)" stroke="rgb(220,208,70)" stroke-width="1" opacity="0.996078431372549" d="M 1648.5 1669 L 1652 1669.5 L 1648.5 1670 L 1648.5 1669 Z " /><path fill="rgb(220,208,70)" stroke="rgb(220,208,70)" stroke-width="1" opacity="0.996078431372549" d="M 1701.5 1669 L 1705 1669.5 L 1701.5 1670 L 1701.5 1669 Z " /><path fill="rgb(220,208,70)" stroke="rgb(220,208,70)" stroke-width="1" opacity="0.996078431372549" d="M 1212.5 1670 L 1216 1670.5 L 1212.5 1671 L 1212.5 1670 Z " /><path fill="rgb(220,208,70)" stroke="rgb(220,208,70)" stroke-width="1" opacity="0.996078431372549" d="M 1642.5 1670 L 1645 1670.5 L 1642.5 1671 L 1642.5 1670 Z " /><path fill="rgb(220,208,70)" stroke="rgb(220,208,70)" stroke-width="1" opacity="0.996078431372549" d="M 1709.5 1670 L 1713 1670.5 L 1709.5 1671 L 1709.5 1670 Z " /><path fill="rgb(220,208,70)" stroke="rgb(220,208,70)" stroke-width="1" opacity="0.996078431372549" d="M 1206.5 1671 L 1209 1671.5 L 1206.5 1672 L 1206.5 1671 Z " /><path fill="rgb(220,208,70)" stroke="rgb(220,208,70)" stroke-width="1" opacity="0.996078431372549" d="M 1716.5 1671 L 1719 1671.5 L 1716.5 1672 L 1716.5 1671 Z " /><path fill="rgb(220,208,70)" stroke="rgb(220,208,70)" stroke-width="1" opacity="0.996078431372549" d="M 1200.5 1672 L 1203 1672.5 L 1200.5 1673 L 1200.5 1672 Z " /><path fill="rgb(220,208,70)" stroke="rgb(220,208,70)" stroke-width="1" opacity="0.996078431372549" d="M 1722.5 1672 L 1725 1672.5 L 1722.5 1673 L 1722.5 1672 Z " /><path fill="rgb(220,208,70)" stroke="rgb(220,208,70)" stroke-width="1" opacity="0.996078431372549" d="M 1593.5 1688 L 1592.5 1690 L 1593.5 1688 Z " /><path fill="rgb(220,208,70)" stroke="rgb(220,208,70)" stroke-width="1" opacity="0.996078431372549" d="M 1813.5 1706 L 1814.5 1708 L 1813.5 1706 Z " /><path fill="rgb(220,208,70)" stroke="rgb(220,208,70)" stroke-width="1" opacity="0.996078431372549" d="M 1818.5 1709 L 1819.5 1711 L 1818.5 1709 Z " /><path fill="rgb(220,208,70)" stroke="rgb(220,208,70)" stroke-width="1" opacity="0.996078431372549" d="M 1821.5 1711 L 1822.5 1713 L 1821.5 1711 Z " /><path fill="rgb(220,208,70)" stroke="rgb(220,208,70)" stroke-width="1" opacity="0.996078431372549" d="M 1824.5 1713 L 1825.5 1715 L 1824.5 1713 Z " /><path fill="rgb(220,208,70)" stroke="rgb(220,208,70)" stroke-width="1" opacity="0.996078431372549" d="M 1827.5 1715 L 1828.5 1717 L 1827.5 1715 Z " /><path fill="rgb(220,208,70)" stroke="rgb(220,208,70)" stroke-width="1" opacity="0.996078431372549" d="M 1834.5 1720 L 1836.5 1723 L 1834.5 1720 Z " /><path fill="rgb(220,208,70)" stroke="rgb(220,208,70)" stroke-width="1" opacity="0.996078431372549" d="M 992.5 1723 L 995 1723.5 L 992.5 1724 L 992.5 1723 Z " /><path fill="rgb(220,208,70)" stroke="rgb(220,208,70)" stroke-width="1" opacity="0.996078431372549" d="M 1443.5 1723 L 1446 1723.5 L 1443.5 1724 L 1443.5 1723 Z " /><path fill="rgb(220,208,70)" stroke="rgb(220,208,70)" stroke-width="1" opacity="0.996078431372549" d="M 641.5 1724 L 640.5 1726 L 641.5 1724 Z " /><path fill="rgb(220,208,70)" stroke="rgb(220,208,70)" stroke-width="1" opacity="0.996078431372549" d="M 998.5 1724 L 1001 1724.5 L 998.5 1725 L 998.5 1724 Z " /><path fill="rgb(220,208,70)" stroke="rgb(220,208,70)" stroke-width="1" opacity="0.996078431372549" d="M 1052.5 1724 L 1055 1724.5 L 1052.5 1725 L 1052.5 1724 Z " /><path fill="rgb(220,208,70)" stroke="rgb(220,208,70)" stroke-width="1" opacity="0.996078431372549" d="M 1449.5 1724 L 1453 1724.5 L 1449.5 1725 L 1449.5 1724 Z " /><path fill="rgb(220,208,70)" stroke="rgb(220,208,70)" stroke-width="1" opacity="0.996078431372549" d="M 1508.5 1724 L 1511 1724.5 L 1508.5 1725 L 1508.5 1724 Z " /><path fill="rgb(220,208,70)" stroke="rgb(220,208,70)" stroke-width="1" opacity="0.996078431372549" d="M 1839.5 1724 L 1840.5 1726 L 1839.5 1724 Z " /><path fill="rgb(220,208,70)" stroke="rgb(220,208,70)" stroke-width="1" opacity="0.996078431372549" d="M 1006.5 1725 L 1011 1725.5 L 1006.5 1726 L 1006.5 1725 Z " /><path fill="rgb(220,208,70)" stroke="rgb(220,208,70)" stroke-width="1" opacity="0.996078431372549" d="M 1043.5 1725 L 1048 1725.5 L 1043.5 1726 L 1043.5 1725 Z " /><path fill="rgb(220,208,70)" stroke="rgb(220,208,70)" stroke-width="1" opacity="0.996078431372549" d="M 1457.5 1725 L 1463 1725.5 L 1457.5 1726 L 1457.5 1725 Z " /><path fill="rgb(220,208,70)" stroke="rgb(220,208,70)" stroke-width="1" opacity="0.996078431372549" d="M 1498.5 1725 L 1503 1725.5 L 1498.5 1726 L 1498.5 1725 Z " /><path fill="rgb(220,208,70)" stroke="rgb(220,208,70)" stroke-width="1" opacity="0.996078431372549" d="M 1019.5 1726 L 1034 1726.5 L 1019.5 1727 L 1019.5 1726 Z " /><path fill="rgb(220,208,70)" stroke="rgb(220,208,70)" stroke-width="1" opacity="0.996078431372549" d="M 1473.5 1726 L 1488 1726.5 L 1473.5 1727 L 1473.5 1726 Z " /><path fill="rgb(255,241,0)" stroke="rgb(255,241,0)" stroke-width="1" opacity="0.996078431372549" d="M 232.5 224 L 2249 224 L 2249 2242 L 232 2241.5 L 2248 2241 L 2248 225 L 232.5 225 L 232.5 224 Z " /><path fill="rgb(255,241,0)" stroke="rgb(255,241,0)" stroke-width="1" opacity="0.996078431372549" d="M 1839.5 1090 L 1840.5 1092 L 1839.5 1090 Z " /><path fill="rgb(255,241,0)" stroke="rgb(255,241,0)" stroke-width="1" opacity="0.996078431372549" d="M 793.5 1499 L 795 1501.5 L 793 1502 L 793.5 1499 Z " /><path fill="rgb(255,241,0)" stroke="rgb(255,241,0)" stroke-width="1" opacity="0.996078431372549" d="M 1193.5 1974 L 1194 1976.5 L 1193 1976.5 L 1193.5 1974 Z " /><path fill="rgb(255,241,0)" stroke="rgb(255,241,0)" stroke-width="1" opacity="0.996078431372549" d="M 1183.5 2025 L 1185 2027.5 L 1183 2026.5 L 1183.5 2025 Z " /><path fill="rgb(0,0,0)" stroke="rgb(0,0,0)" stroke-width="1" opacity="0" d="M 0 0 L 2480 0 L 2480 3397 L 0 3397 L 0 0 Z M 232 224 L 232 2242 L 2249 2242 L 2249 224 L 232 224 Z M 232 2550 L 232 3173 L 385 3173 L 385 2980 L 555 2980 L 556 2979 L 571 2978 L 597 2972 L 619 2964 Q 648 2951 670 2931 Q 699 2904 717 2865 Q 726 2845 731 2822 L 734 2799 L 735 2798 L 735 2790 L 736 2789 L 736 2769 L 737 2768 L 735 2731 L 727 2692 Q 714 2647 687 2617 Q 646 2566 570 2552 L 553 2551 L 552 2550 L 232 2550 Z M 973 2550 L 973 3173 L 1423 3173 L 1423 3041 L 1126 3041 L 1126 2551 L 1126 2550 L 973 2550 Z M 1680 2550 L 1680 3173 L 1681 3173 L 1833 3173 L 1833 3149 L 1832 3148 L 1833 2811 L 2079 3170 L 2083 3173 L 2249 3173 L 2249 2551 L 2249 2550 L 2096 2550 L 2096 2927 L 1835 2552 L 1835 2550 L 1680 2550 Z " /><path fill="rgb(0,0,0)" stroke="rgb(0,0,0)" stroke-width="1" opacity="0" d="M 385 2681 L 511.5 2681 Q 513.3 2683.8 519.5 2682 Q 548 2687 563 2705.5 Q 572.3 2716.7 577 2732.5 L 581 2754.5 L 581 2773.5 L 580 2774.5 L 580 2782.5 L 578 2792.5 L 574 2804.5 Q 567.3 2821.3 554.5 2832 Q 545 2840.5 531.5 2845 L 511.5 2849 L 385 2849 L 385 2681 Z " /><path fill="rgb(255,242,0)" stroke="rgb(255,242,0)" stroke-width="1" opacity="1" d="M 232 225 L 2248 225 L 2248 2241 L 232 2241 L 232 225 Z M 1111 494 L 1107 502 L 1102 521 L 1096 537 L 1091 556 L 1079 591 L 1079 594 L 971 937 L 969 937 L 936 921 L 907 911 L 879 905 L 865 904 L 864 903 L 853 903 L 852 902 L 810 902 L 809 903 L 799 903 L 798 904 L 784 905 L 758 910 Q 692 925 640 954 L 638 956 L 638 1092 Q 675 1069 720 1053 L 768 1039 L 791 1035 L 798 1035 L 799 1034 L 809 1034 L 810 1033 L 841 1033 L 875 1039 L 897 1047 L 930 1064 L 881 1223 L 871 1221 L 849 1220 L 848 1219 L 814 1219 L 813 1220 L 801 1220 L 800 1221 L 793 1221 L 792 1222 L 768 1225 L 742 1231 L 695 1246 Q 665 1257 640 1271 L 638 1273 L 638 1409 L 684 1385 L 726 1368 L 774 1355 L 792 1353 L 793 1352 L 800 1352 L 801 1351 L 813 1351 L 814 1350 L 836 1350 L 840 1351 L 793 1502 L 1007 1408 L 1009 1409 L 1045 1409 L 1074 1404 L 1100 1395 L 1146 1373 L 1178 1361 L 1210 1354 L 1225 1353 L 1226 1352 L 1239 1352 L 1240 1351 L 1283 1352 L 1284 1353 L 1304 1355 L 1316 1358 L 1281 1537 L 1280 1538 L 1279 1537 L 1269 1537 L 1268 1536 L 1229 1536 L 1228 1537 L 1217 1537 L 1216 1538 L 1202 1539 L 1181 1543 L 1134 1557 L 1070 1582 L 1039 1589 L 1019 1589 L 1004 1586 L 985 1579 L 943 1558 L 917 1548 L 885 1540 L 865 1538 L 864 1537 L 853 1537 L 852 1536 L 811 1536 L 810 1537 L 791 1538 L 772 1542 L 767 1542 L 734 1550 Q 681 1565 638 1590 L 639 1727 Q 674 1704 718 1688 L 749 1678 L 774 1672 L 791 1670 L 792 1669 L 800 1669 L 801 1668 L 812 1668 L 813 1667 L 848 1668 L 877 1674 L 909 1687 Q 935 1703 965 1716 L 993 1724 L 1005 1725 L 1006 1726 L 1019 1726 L 1020 1727 L 1048 1726 L 1075 1721 L 1103 1711 L 1158 1685 L 1182 1677 L 1217 1670 L 1254 1668 L 1237 1754 L 1237 1759 L 1183 2026 L 1184 2030 L 1325 1677 L 1355 1688 L 1411 1715 L 1426 1720 L 1444 1724 L 1457 1725 L 1458 1726 L 1472 1726 L 1473 1727 L 1504 1726 L 1534 1720 Q 1552 1714 1568 1705 Q 1589 1689 1616 1678 L 1640 1671 L 1652 1670 L 1653 1669 L 1664 1669 L 1665 1668 L 1687 1668 L 1688 1669 L 1701 1669 L 1702 1670 L 1716 1671 L 1748 1678 L 1769 1685 Q 1811 1700 1842 1727 L 1842 1590 Q 1831 1578 1816 1570 L 1781 1554 L 1763 1548 L 1733 1541 L 1714 1539 L 1713 1538 L 1705 1538 L 1704 1537 L 1692 1537 L 1691 1536 L 1646 1536 L 1645 1537 L 1626 1538 L 1602 1543 Q 1584 1548 1571 1556 L 1545 1573 L 1527 1582 L 1514 1586 L 1504 1588 L 1497 1588 L 1496 1589 L 1465 1589 L 1464 1588 L 1456 1588 L 1455 1587 L 1438 1585 L 1418 1580 L 1370 1563 L 1434 1404 L 1445 1407 L 1460 1408 L 1461 1409 L 1501 1409 L 1502 1408 L 1510 1408 L 1526 1405 L 1552 1396 L 1595 1371 L 1616 1361 L 1640 1354 L 1652 1353 L 1653 1352 L 1664 1352 L 1665 1351 L 1688 1351 L 1689 1352 L 1710 1353 L 1737 1358 L 1755 1363 Q 1805 1379 1841 1409 L 1842 1409 L 1842 1273 L 1833 1264 L 1814 1252 L 1778 1236 L 1755 1229 L 1732 1224 L 1713 1222 L 1712 1221 L 1703 1221 L 1702 1220 L 1689 1220 L 1688 1219 L 1649 1219 L 1648 1220 L 1636 1220 L 1603 1226 L 1575 1237 L 1545 1256 L 1527 1265 L 1510 1270 L 1486 1272 L 1565 1073 Q 1588 1055 1618 1043 L 1639 1037 L 1650 1036 L 1651 1035 L 1661 1035 L 1662 1034 L 1702 1035 L 1703 1036 L 1710 1036 L 1711 1037 L 1728 1039 L 1752 1045 Q 1778 1053 1801 1065 L 1829 1082 L 1841 1092 L 1842 1092 L 1842 954 Q 1817 934 1784 921 L 1743 909 L 1714 904 L 1693 903 L 1692 902 L 1645 902 L 1644 903 L 1626 904 L 1602 909 Q 1584 914 1571 922 L 1543 940 L 1529 947 L 1509 953 L 1496 954 L 1495 955 L 1466 955 L 1465 954 L 1456 954 L 1434 950 L 1394 938 L 1330 914 L 1293 905 L 1280 904 L 1279 903 L 1270 903 L 1269 902 L 1228 902 L 1227 903 L 1217 903 L 1192 907 L 1369 496 L 1369 494 L 1111 494 Z " /><path fill="rgb(255,242,0)" stroke="rgb(255,242,0)" stroke-width="1" opacity="1" d="M 1236.5 1034 L 1270.5 1034 L 1271.5 1035 L 1283.5 1035 L 1284.5 1036 L 1292.5 1036 L 1318.5 1041 Q 1351.3 1050.2 1378 1065.5 L 1374.5 1068 L 1069.5 1191 L 1070 1189.5 L 1120 1071.5 L 1123.5 1066 L 1149.5 1054 L 1180.5 1043 L 1214.5 1036 L 1235.5 1035 L 1236.5 1034 Z " /><path fill="rgb(236,28,36)" stroke="rgb(236,28,36)" stroke-width="1" opacity="1" d="M 1110 494 L 1367.5 494 L 1368 496.5 L 1139 1025.5 L 1069 1191 L 1106.5 1177 L 1602.5 976 L 1602 977.5 L 1566 1067.5 L 1564 1075.5 L 1450 1358.5 L 1409 1464.5 L 1340 1634.5 L 1324 1677.5 L 1183.5 2029 L 1183 2027.5 L 1215 1871.5 L 1215 1866.5 L 1254 1671.5 L 1256 1666.5 L 1270 1596.5 L 1270 1591.5 L 1281 1540.5 L 1281 1535.5 L 1302 1434.5 L 1302 1429.5 L 1316 1359.5 L 1318 1354.5 L 1336 1263 L 794 1501 L 1110 494 Z " /><path fill="rgb(22,178,216)" stroke="rgb(22,178,216)" stroke-width="1" opacity="0.7098039215686275" d="M 232.5 2550 L 552 2550.5 L 232.5 2551 L 232.5 2550 Z " /><path fill="rgb(22,178,216)" stroke="rgb(22,178,216)" stroke-width="1" opacity="0.7098039215686275" d="M 973 2550 L 1125.5 2550 L 1126 2550.5 L 1126 3041 L 1423 3041 L 1423 3173 L 973 3173 L 973 2550 Z M 974 2551 L 974 3172 L 1422 3172 L 1422 3172 L 1422 3042 L 1127 3042 L 1125 3041 L 1125 2552 L 1125 2551 L 974 2551 Z " /><path fill="rgb(22,178,216)" stroke="rgb(22,178,216)" stroke-width="1" opacity="0.7098039215686275" d="M 1680.5 2550 L 1835 2550.5 L 1680.5 2551 L 1680.5 2550 Z " /><path fill="rgb(22,178,216)" stroke="rgb(22,178,216)" stroke-width="1" opacity="0.7098039215686275" d="M 2096.5 2550 L 2248.5 2550 L 2249 2550.5 L 2249 3173 L 2082.5 3173 L 2079 3169.5 L 2073 3160.5 L 2076 3162.5 L 2082.5 3172 L 2247.5 3172 L 2248 3171.5 L 2248 2551 L 2096.5 2551 L 2096.5 2550 Z " /><path fill="rgb(22,178,216)" stroke="rgb(22,178,216)" stroke-width="1" opacity="0.7098039215686275" d="M 555.5 2551 L 562 2551.5 L 555.5 2552 L 555.5 2551 Z " /><path fill="rgb(22,178,216)" stroke="rgb(22,178,216)" stroke-width="1" opacity="0.7098039215686275" d="M 564.5 2552 L 570 2552.5 L 564.5 2553 L 564.5 2552 Z " /><path fill="rgb(22,178,216)" stroke="rgb(22,178,216)" stroke-width="1" opacity="0.7098039215686275" d="M 1835.5 2552 L 1844 2563.5 L 1841 2561.5 L 1835.5 2552 Z " /><path fill="rgb(22,178,216)" stroke="rgb(22,178,216)" stroke-width="1" opacity="0.7098039215686275" d="M 571.5 2553 L 576 2553.5 L 571.5 2554 L 571.5 2553 Z " /><path fill="rgb(22,178,216)" stroke="rgb(22,178,216)" stroke-width="1" opacity="0.7098039215686275" d="M 577.5 2554 L 581 2554.5 L 577.5 2555 L 577.5 2554 Z " /><path fill="rgb(22,178,216)" stroke="rgb(22,178,216)" stroke-width="1" opacity="0.7098039215686275" d="M 582.5 2555 L 585 2555.5 L 582.5 2556 L 582.5 2555 Z " /><path fill="rgb(22,178,216)" stroke="rgb(22,178,216)" stroke-width="1" opacity="0.7098039215686275" d="M 586.5 2556 L 589 2556.5 L 586.5 2557 L 586.5 2556 Z " /><path fill="rgb(22,178,216)" stroke="rgb(22,178,216)" stroke-width="1" opacity="0.7098039215686275" d="M 590.5 2557 L 593 2557.5 L 590.5 2558 L 590.5 2557 Z " /><path fill="rgb(22,178,216)" stroke="rgb(22,178,216)" stroke-width="1" opacity="0.7098039215686275" d="M 594.5 2558 L 600 2559.5 L 597.5 2560 L 594.5 2559 L 594.5 2558 Z " /><path fill="rgb(22,178,216)" stroke="rgb(22,178,216)" stroke-width="1" opacity="0.7098039215686275" d="M 607.5 2562 L 611 2563.5 L 609.5 2564 L 607.5 2562 Z " /><path fill="rgb(22,178,216)" stroke="rgb(22,178,216)" stroke-width="1" opacity="0.7098039215686275" d="M 612.5 2564 L 616 2565.5 L 614.5 2566 L 612.5 2564 Z " /><path fill="rgb(22,178,216)" stroke="rgb(22,178,216)" stroke-width="1" opacity="0.7098039215686275" d="M 1844.5 2565 L 1853 2576.5 L 1850 2574.5 L 1844.5 2565 Z " /><path fill="rgb(22,178,216)" stroke="rgb(22,178,216)" stroke-width="1" opacity="0.7098039215686275" d="M 617.5 2566 L 623 2568.5 L 621.5 2569 L 617.5 2567 L 617.5 2566 Z " /><path fill="rgb(22,178,216)" stroke="rgb(22,178,216)" stroke-width="1" opacity="0.7098039215686275" d="M 632.5 2573 L 640 2577.5 L 638.5 2577 Q 632.9 2576.2 632.5 2573 Z " /><path fill="rgb(22,178,216)" stroke="rgb(22,178,216)" stroke-width="1" opacity="0.7098039215686275" d="M 641.5 2578 L 655 2587.5 L 652.5 2586 L 642.5 2580 L 641.5 2578 Z " /><path fill="rgb(22,178,216)" stroke="rgb(22,178,216)" stroke-width="1" opacity="0.7098039215686275" d="M 1853.5 2578 L 1862 2589.5 L 1859 2587.5 L 1853.5 2578 Z " /><path fill="rgb(22,178,216)" stroke="rgb(22,178,216)" stroke-width="1" opacity="0.7098039215686275" d="M 2096.5 2579 L 2097 2928.5 L 2094 2926.5 L 2088 2917.5 L 2091 2919.5 L 2095.5 2927 L 2096.5 2579 Z " /><path fill="rgb(22,178,216)" stroke="rgb(22,178,216)" stroke-width="1" opacity="0.7098039215686275" d="M 656.5 2588 Q 673.6 2600.4 687 2616.5 L 691 2621.5 L 686 2617.5 L 665.5 2596 Q 659 2592.9 656.5 2588 Z " /><path fill="rgb(22,178,216)" stroke="rgb(22,178,216)" stroke-width="1" opacity="0.7098039215686275" d="M 1862.5 2591 L 1871 2602.5 L 1868 2600.5 L 1862.5 2591 Z " /><path fill="rgb(22,178,216)" stroke="rgb(22,178,216)" stroke-width="1" opacity="0.7098039215686275" d="M 1871.5 2604 L 1878 2612.5 L 1875 2610.5 L 1871.5 2604 Z " /><path fill="rgb(22,178,216)" stroke="rgb(22,178,216)" stroke-width="1" opacity="0.7098039215686275" d="M 1878.5 2614 L 1887 2625.5 L 1884 2623.5 L 1878.5 2614 Z " /><path fill="rgb(22,178,216)" stroke="rgb(22,178,216)" stroke-width="1" opacity="0.7098039215686275" d="M 691.5 2623 L 699 2632.5 L 696 2630.5 L 691.5 2623 Z " /><path fill="rgb(22,178,216)" stroke="rgb(22,178,216)" stroke-width="1" opacity="0.7098039215686275" d="M 1887.5 2627 L 1896 2638.5 L 1893 2636.5 L 1887.5 2627 Z " /><path fill="rgb(22,178,216)" stroke="rgb(22,178,216)" stroke-width="1" opacity="0.7098039215686275" d="M 699.5 2634 L 700.5 2636 L 699.5 2634 Z " /><path fill="rgb(22,178,216)" stroke="rgb(22,178,216)" stroke-width="1" opacity="0.7098039215686275" d="M 701.5 2637 L 706 2643.5 L 704 2642.5 L 701.5 2637 Z " /><path fill="rgb(22,178,216)" stroke="rgb(22,178,216)" stroke-width="1" opacity="0.7098039215686275" d="M 1896.5 2640 L 1905 2651.5 L 1902 2649.5 L 1896.5 2640 Z " /><path fill="rgb(22,178,216)" stroke="rgb(22,178,216)" stroke-width="1" opacity="0.7098039215686275" d="M 706.5 2645 L 717 2665.5 L 716 2665.5 L 706.5 2645 Z " /><path fill="rgb(22,178,216)" stroke="rgb(22,178,216)" stroke-width="1" opacity="0.7098039215686275" d="M 1905.5 2653 L 1914 2664.5 L 1911 2662.5 L 1905.5 2653 Z " /><path fill="rgb(22,178,216)" stroke="rgb(22,178,216)" stroke-width="1" opacity="0.7098039215686275" d="M 1914.5 2666 L 1923 2677.5 L 1920 2675.5 L 1914.5 2666 Z " /><path fill="rgb(22,178,216)" stroke="rgb(22,178,216)" stroke-width="1" opacity="0.7098039215686275" d="M 718.5 2669 L 720 2672.5 L 719 2672.5 L 718.5 2669 Z " /><path fill="rgb(22,178,216)" stroke="rgb(22,178,216)" stroke-width="1" opacity="0.7098039215686275" d="M 720.5 2674 L 723 2680.5 L 722 2680.5 L 720.5 2674 Z " /><path fill="rgb(22,178,216)" stroke="rgb(22,178,216)" stroke-width="1" opacity="0.7098039215686275" d="M 1923.5 2679 L 1932 2690.5 L 1929 2688.5 L 1923.5 2679 Z " /><path fill="rgb(22,178,216)" stroke="rgb(22,178,216)" stroke-width="1" opacity="0.7098039215686275" d="M 384.5 2681 L 385 2849 L 509 2849.5 L 385.5 2850 L 384 2848.5 L 384.5 2681 Z " /><path fill="rgb(22,178,216)" stroke="rgb(22,178,216)" stroke-width="1" opacity="0.7098039215686275" d="M 512.5 2681 L 519 2681.5 L 512.5 2682 L 512.5 2681 Z " /><path fill="rgb(22,178,216)" stroke="rgb(22,178,216)" stroke-width="1" opacity="0.7098039215686275" d="M 520.5 2682 L 524 2682.5 L 520.5 2683 L 520.5 2682 Z " /><path fill="rgb(22,178,216)" stroke="rgb(22,178,216)" stroke-width="1" opacity="0.7098039215686275" d="M 526.5 2683 L 529 2683.5 L 526.5 2684 L 526.5 2683 Z " /><path fill="rgb(22,178,216)" stroke="rgb(22,178,216)" stroke-width="1" opacity="0.7098039215686275" d="M 536.5 2686 Q 547.3 2689.2 554 2696.5 L 550.5 2694 L 536.5 2687 L 536.5 2686 Z " /><path fill="rgb(22,178,216)" stroke="rgb(22,178,216)" stroke-width="1" opacity="0.7098039215686275" d="M 725.5 2688 L 727 2693.5 L 726 2693.5 L 725.5 2688 Z " /><path fill="rgb(22,178,216)" stroke="rgb(22,178,216)" stroke-width="1" opacity="0.7098039215686275" d="M 1932.5 2692 L 1941 2703.5 L 1938 2701.5 L 1932.5 2692 Z " /><path fill="rgb(22,178,216)" stroke="rgb(22,178,216)" stroke-width="1" opacity="0.7098039215686275" d="M 727.5 2695 L 728 2697.5 L 727 2697.5 L 727.5 2695 Z " /><path fill="rgb(22,178,216)" stroke="rgb(22,178,216)" stroke-width="1" opacity="0.7098039215686275" d="M 555.5 2697 L 562.5 2705 L 555.5 2697 Z " /><path fill="rgb(22,178,216)" stroke="rgb(22,178,216)" stroke-width="1" opacity="0.7098039215686275" d="M 728.5 2699 L 729 2701.5 L 728 2701.5 L 728.5 2699 Z " /><path fill="rgb(22,178,216)" stroke="rgb(22,178,216)" stroke-width="1" opacity="0.7098039215686275" d="M 729.5 2703 L 730 2705.5 L 729 2705.5 L 729.5 2703 Z " /><path fill="rgb(22,178,216)" stroke="rgb(22,178,216)" stroke-width="1" opacity="0.7098039215686275" d="M 1941.5 2705 L 1948 2713.5 L 1945 2711.5 L 1941.5 2705 Z " /><path fill="rgb(22,178,216)" stroke="rgb(22,178,216)" stroke-width="1" opacity="0.7098039215686275" d="M 563.5 2706 L 571 2716.5 L 569 2715.5 L 563.5 2706 Z " /><path fill="rgb(22,178,216)" stroke="rgb(22,178,216)" stroke-width="1" opacity="0.7098039215686275" d="M 730.5 2707 L 731 2709.5 L 730 2709.5 L 730.5 2707 Z " /><path fill="rgb(22,178,216)" stroke="rgb(22,178,216)" stroke-width="1" opacity="0.7098039215686275" d="M 731.5 2712 L 732 2715.5 L 731 2715.5 L 731.5 2712 Z " /><path fill="rgb(22,178,216)" stroke="rgb(22,178,216)" stroke-width="1" opacity="0.7098039215686275" d="M 1948.5 2715 L 1957 2726.5 L 1954 2724.5 L 1948.5 2715 Z " /><path fill="rgb(22,178,216)" stroke="rgb(22,178,216)" stroke-width="1" opacity="0.7098039215686275" d="M 732.5 2717 L 733 2720.5 L 732 2720.5 L 732.5 2717 Z " /><path fill="rgb(22,178,216)" stroke="rgb(22,178,216)" stroke-width="1" opacity="0.7098039215686275" d="M 572.5 2720 L 575 2725.5 L 574 2725.5 L 572.5 2720 Z " /><path fill="rgb(22,178,216)" stroke="rgb(22,178,216)" stroke-width="1" opacity="0.7098039215686275" d="M 733.5 2723 L 734 2727.5 L 733 2727.5 L 733.5 2723 Z " /><path fill="rgb(22,178,216)" stroke="rgb(22,178,216)" stroke-width="1" opacity="0.7098039215686275" d="M 1957.5 2728 L 1966 2739.5 L 1963 2737.5 L 1957.5 2728 Z " /><path fill="rgb(22,178,216)" stroke="rgb(22,178,216)" stroke-width="1" opacity="0.7098039215686275" d="M 734.5 2730 L 735 2736.5 L 734 2736.5 L 734.5 2730 Z " /><path fill="rgb(22,178,216)" stroke="rgb(22,178,216)" stroke-width="1" opacity="0.7098039215686275" d="M 577.5 2733 L 578 2735.5 L 577 2735.5 L 577.5 2733 Z " /><path fill="rgb(22,178,216)" stroke="rgb(22,178,216)" stroke-width="1" opacity="0.7098039215686275" d="M 578.5 2737 L 579 2739.5 L 578 2739.5 L 578.5 2737 Z " /><path fill="rgb(22,178,216)" stroke="rgb(22,178,216)" stroke-width="1" opacity="0.7098039215686275" d="M 735.5 2740 L 736 2750.5 L 735 2750.5 L 735.5 2740 Z " /><path fill="rgb(22,178,216)" stroke="rgb(22,178,216)" stroke-width="1" opacity="0.7098039215686275" d="M 579.5 2741 L 580 2745.5 L 579 2745.5 L 579.5 2741 Z " /><path fill="rgb(22,178,216)" stroke="rgb(22,178,216)" stroke-width="1" opacity="0.7098039215686275" d="M 1966.5 2741 L 1975 2752.5 L 1972 2750.5 L 1966.5 2741 Z " /><path fill="rgb(22,178,216)" stroke="rgb(22,178,216)" stroke-width="1" opacity="0.7098039215686275" d="M 580.5 2747 L 581 2753.5 L 580 2753.5 L 580.5 2747 Z " /><path fill="rgb(22,178,216)" stroke="rgb(22,178,216)" stroke-width="1" opacity="0.7098039215686275" d="M 1975.5 2754 L 1984 2765.5 L 1981 2763.5 L 1975.5 2754 Z " /><path fill="rgb(22,178,216)" stroke="rgb(22,178,216)" stroke-width="1" opacity="0.7098039215686275" d="M 581.5 2758 L 582 2769.5 L 581 2769.5 L 581.5 2758 Z " /><path fill="rgb(22,178,216)" stroke="rgb(22,178,216)" stroke-width="1" opacity="0.7098039215686275" d="M 736.5 2760 L 737 2767.5 L 736 2767.5 L 736.5 2760 Z " /><path fill="rgb(22,178,216)" stroke="rgb(22,178,216)" stroke-width="1" opacity="0.7098039215686275" d="M 1984.5 2767 L 1993 2778.5 L 1990 2776.5 L 1984.5 2767 Z " /><path fill="rgb(22,178,216)" stroke="rgb(22,178,216)" stroke-width="1" opacity="0.7098039215686275" d="M 580.5 2774 L 581 2780.5 L 580 2780.5 L 580.5 2774 Z " /><path fill="rgb(22,178,216)" stroke="rgb(22,178,216)" stroke-width="1" opacity="0.7098039215686275" d="M 735.5 2777 L 736 2788.5 L 735 2788.5 L 735.5 2777 Z " /><path fill="rgb(22,178,216)" stroke="rgb(22,178,216)" stroke-width="1" opacity="0.7098039215686275" d="M 1993.5 2780 L 2002 2791.5 L 1999 2789.5 L 1993.5 2780 Z " /><path fill="rgb(22,178,216)" stroke="rgb(22,178,216)" stroke-width="1" opacity="0.7098039215686275" d="M 579.5 2783 L 580 2786.5 L 579 2786.5 L 579.5 2783 Z " /><path fill="rgb(22,178,216)" stroke="rgb(22,178,216)" stroke-width="1" opacity="0.7098039215686275" d="M 578.5 2788 L 579 2791.5 L 578 2791.5 L 578.5 2788 Z " /><path fill="rgb(22,178,216)" stroke="rgb(22,178,216)" stroke-width="1" opacity="0.7098039215686275" d="M 734.5 2791 L 735 2797.5 L 734 2797.5 L 734.5 2791 Z " /><path fill="rgb(22,178,216)" stroke="rgb(22,178,216)" stroke-width="1" opacity="0.7098039215686275" d="M 2002.5 2793 L 2018 2814.5 L 2015 2812.5 L 2002.5 2793 Z " /><path fill="rgb(22,178,216)" stroke="rgb(22,178,216)" stroke-width="1" opacity="0.7098039215686275" d="M 576.5 2796 L 577 2798.5 L 576 2798.5 L 576.5 2796 Z " /><path fill="rgb(22,178,216)" stroke="rgb(22,178,216)" stroke-width="1" opacity="0.7098039215686275" d="M 575.5 2800 L 576 2801.5 L 574.5 2804 L 574 2802.5 L 575.5 2800 Z " /><path fill="rgb(22,178,216)" stroke="rgb(22,178,216)" stroke-width="1" opacity="0.7098039215686275" d="M 733.5 2800 L 734 2804.5 L 733 2804.5 L 733.5 2800 Z " /><path fill="rgb(22,178,216)" stroke="rgb(22,178,216)" stroke-width="1" opacity="0.7098039215686275" d="M 573.5 2805 L 574 2806.5 L 568.5 2816 L 569 2814.5 L 573.5 2805 Z " /><path fill="rgb(22,178,216)" stroke="rgb(22,178,216)" stroke-width="1" opacity="0.7098039215686275" d="M 732.5 2807 L 733 2811.5 L 732 2811.5 L 732.5 2807 Z " /><path fill="rgb(22,178,216)" stroke="rgb(22,178,216)" stroke-width="1" opacity="0.7098039215686275" d="M 1831.5 2809 L 1836 2814.5 L 1833 2812.5 L 1832.5 2811 L 1831.5 3019 L 1831.5 2809 Z " /><path fill="rgb(22,178,216)" stroke="rgb(22,178,216)" stroke-width="1" opacity="0.7098039215686275" d="M 731.5 2813 L 732 2816.5 L 731 2816.5 L 731.5 2813 Z " /><path fill="rgb(22,178,216)" stroke="rgb(22,178,216)" stroke-width="1" opacity="0.7098039215686275" d="M 1836.5 2816 L 1837.5 2818 L 1836.5 2816 Z " /><path fill="rgb(22,178,216)" stroke="rgb(22,178,216)" stroke-width="1" opacity="0.7098039215686275" d="M 2018.5 2816 L 2027 2827.5 L 2024 2825.5 L 2018.5 2816 Z " /><path fill="rgb(22,178,216)" stroke="rgb(22,178,216)" stroke-width="1" opacity="0.7098039215686275" d="M 567.5 2817 L 566.5 2819 L 567.5 2817 Z " /><path fill="rgb(22,178,216)" stroke="rgb(22,178,216)" stroke-width="1" opacity="0.7098039215686275" d="M 730.5 2818 L 731 2821.5 L 730 2821.5 L 730.5 2818 Z " /><path fill="rgb(22,178,216)" stroke="rgb(22,178,216)" stroke-width="1" opacity="0.7098039215686275" d="M 1838.5 2819 L 1847 2830.5 L 1844 2828.5 L 1838.5 2819 Z " /><path fill="rgb(22,178,216)" stroke="rgb(22,178,216)" stroke-width="1" opacity="0.7098039215686275" d="M 565.5 2820 L 563 2823.5 L 554.5 2833 L 550.5 2836 L 553.5 2832 L 562 2824.5 L 565.5 2820 Z " /><path fill="rgb(22,178,216)" stroke="rgb(22,178,216)" stroke-width="1" opacity="0.7098039215686275" d="M 729.5 2823 L 730 2825.5 L 729 2825.5 L 729.5 2823 Z " /><path fill="rgb(22,178,216)" stroke="rgb(22,178,216)" stroke-width="1" opacity="0.7098039215686275" d="M 728.5 2827 L 729 2829.5 L 728 2829.5 L 728.5 2827 Z " /><path fill="rgb(22,178,216)" stroke="rgb(22,178,216)" stroke-width="1" opacity="0.7098039215686275" d="M 2027.5 2829 L 2036 2840.5 L 2033 2838.5 L 2027.5 2829 Z " /><path fill="rgb(22,178,216)" stroke="rgb(22,178,216)" stroke-width="1" opacity="0.7098039215686275" d="M 727.5 2831 L 728 2833.5 L 727 2833.5 L 727.5 2831 Z " /><path fill="rgb(22,178,216)" stroke="rgb(22,178,216)" stroke-width="1" opacity="0.7098039215686275" d="M 1847.5 2832 L 1858 2846.5 L 1855 2844.5 L 1847.5 2832 Z " /><path fill="rgb(22,178,216)" stroke="rgb(22,178,216)" stroke-width="1" opacity="0.7098039215686275" d="M 548.5 2836 L 547.5 2838 L 548.5 2836 Z " /><path fill="rgb(22,178,216)" stroke="rgb(22,178,216)" stroke-width="1" opacity="0.7098039215686275" d="M 545.5 2838 L 544.5 2840 L 537.5 2843 L 537.5 2842 L 545.5 2838 Z " /><path fill="rgb(22,178,216)" stroke="rgb(22,178,216)" stroke-width="1" opacity="0.7098039215686275" d="M 725.5 2838 L 726 2840.5 L 721.5 2852 L 721 2850.5 L 725.5 2838 Z " /><path fill="rgb(22,178,216)" stroke="rgb(22,178,216)" stroke-width="1" opacity="0.7098039215686275" d="M 2036.5 2842 L 2045 2853.5 L 2042 2851.5 L 2036.5 2842 Z " /><path fill="rgb(22,178,216)" stroke="rgb(22,178,216)" stroke-width="1" opacity="0.7098039215686275" d="M 534.5 2843 L 536 2843.5 L 532.5 2845 L 532.5 2844 L 534.5 2843 Z " /><path fill="rgb(22,178,216)" stroke="rgb(22,178,216)" stroke-width="1" opacity="0.7098039215686275" d="M 528.5 2845 L 531 2845.5 L 528.5 2846 L 528.5 2845 Z " /><path fill="rgb(22,178,216)" stroke="rgb(22,178,216)" stroke-width="1" opacity="0.7098039215686275" d="M 524.5 2846 L 527 2846.5 L 524.5 2847 L 524.5 2846 Z " /><path fill="rgb(22,178,216)" stroke="rgb(22,178,216)" stroke-width="1" opacity="0.7098039215686275" d="M 519.5 2847 L 523 2847.5 L 519.5 2848 L 519.5 2847 Z " /><path fill="rgb(22,178,216)" stroke="rgb(22,178,216)" stroke-width="1" opacity="0.7098039215686275" d="M 512.5 2848 L 518 2848.5 L 512.5 2849 L 512.5 2848 Z " /><path fill="rgb(22,178,216)" stroke="rgb(22,178,216)" stroke-width="1" opacity="0.7098039215686275" d="M 1858.5 2848 L 1867 2859.5 L 1864 2857.5 L 1858.5 2848 Z " /><path fill="rgb(22,178,216)" stroke="rgb(22,178,216)" stroke-width="1" opacity="0.7098039215686275" d="M 720.5 2853 L 721 2854.5 L 719.5 2857 L 719 2855.5 L 720.5 2853 Z " /><path fill="rgb(22,178,216)" stroke="rgb(22,178,216)" stroke-width="1" opacity="0.7098039215686275" d="M 2045.5 2855 L 2054 2866.5 L 2051 2864.5 L 2045.5 2855 Z " /><path fill="rgb(22,178,216)" stroke="rgb(22,178,216)" stroke-width="1" opacity="0.7098039215686275" d="M 718.5 2858 L 719 2859.5 L 717.5 2862 L 717 2860.5 L 718.5 2858 Z " /><path fill="rgb(22,178,216)" stroke="rgb(22,178,216)" stroke-width="1" opacity="0.7098039215686275" d="M 1867.5 2861 L 1878 2875.5 L 1875 2873.5 L 1867.5 2861 Z " /><path fill="rgb(22,178,216)" stroke="rgb(22,178,216)" stroke-width="1" opacity="0.7098039215686275" d="M 716.5 2863 L 717 2864.5 Q 709.1 2883.1 697.5 2898 L 699 2895.5 L 716.5 2863 Z " /><path fill="rgb(22,178,216)" stroke="rgb(22,178,216)" stroke-width="1" opacity="0.7098039215686275" d="M 2054.5 2868 L 2063 2879.5 L 2060 2877.5 L 2054.5 2868 Z " /><path fill="rgb(22,178,216)" stroke="rgb(22,178,216)" stroke-width="1" opacity="0.7098039215686275" d="M 1878.5 2877 L 1887 2888.5 L 1884 2886.5 L 1878.5 2877 Z " /><path fill="rgb(22,178,216)" stroke="rgb(22,178,216)" stroke-width="1" opacity="0.7098039215686275" d="M 2063.5 2881 L 2072 2892.5 L 2069 2890.5 L 2063.5 2881 Z " /><path fill="rgb(22,178,216)" stroke="rgb(22,178,216)" stroke-width="1" opacity="0.7098039215686275" d="M 1887.5 2890 L 1888.5 2892 L 1887.5 2890 Z " /><path fill="rgb(22,178,216)" stroke="rgb(22,178,216)" stroke-width="1" opacity="0.7098039215686275" d="M 1889.5 2893 L 1898 2904.5 L 1895 2902.5 L 1889.5 2893 Z " /><path fill="rgb(22,178,216)" stroke="rgb(22,178,216)" stroke-width="1" opacity="0.7098039215686275" d="M 2072.5 2894 L 2088 2915.5 L 2085 2913.5 L 2072.5 2894 Z " /><path fill="rgb(22,178,216)" stroke="rgb(22,178,216)" stroke-width="1" opacity="0.7098039215686275" d="M 696.5 2899 L 695 2901.5 Q 684.1 2918.1 669.5 2931 Q 655.3 2944.3 637.5 2954 L 638.5 2952 Q 663.2 2938.7 681 2918.5 L 696.5 2899 Z " /><path fill="rgb(22,178,216)" stroke="rgb(22,178,216)" stroke-width="1" opacity="0.7098039215686275" d="M 1898.5 2906 L 1909 2920.5 L 1906 2918.5 L 1898.5 2906 Z " /><path fill="rgb(22,178,216)" stroke="rgb(22,178,216)" stroke-width="1" opacity="0.7098039215686275" d="M 1909.5 2922 L 1918 2933.5 L 1915 2931.5 L 1909.5 2922 Z " /><path fill="rgb(22,178,216)" stroke="rgb(22,178,216)" stroke-width="1" opacity="0.7098039215686275" d="M 1918.5 2935 L 1929 2949.5 L 1926 2947.5 L 1918.5 2935 Z " /><path fill="rgb(22,178,216)" stroke="rgb(22,178,216)" stroke-width="1" opacity="0.7098039215686275" d="M 1929.5 2951 L 1938 2962.5 L 1935 2960.5 L 1929.5 2951 Z " /><path fill="rgb(22,178,216)" stroke="rgb(22,178,216)" stroke-width="1" opacity="0.7098039215686275" d="M 635.5 2954 L 634.5 2956 L 617.5 2964 L 617.5 2963 L 635.5 2954 Z " /><path fill="rgb(22,178,216)" stroke="rgb(22,178,216)" stroke-width="1" opacity="0.7098039215686275" d="M 614.5 2964 L 616 2964.5 L 612.5 2966 L 612.5 2965 L 614.5 2964 Z " /><path fill="rgb(22,178,216)" stroke="rgb(22,178,216)" stroke-width="1" opacity="0.7098039215686275" d="M 1938.5 2964 L 1939.5 2966 L 1938.5 2964 Z " /><path fill="rgb(22,178,216)" stroke="rgb(22,178,216)" stroke-width="1" opacity="0.7098039215686275" d="M 609.5 2966 L 611 2966.5 L 607.5 2968 L 607.5 2967 L 609.5 2966 Z " /><path fill="rgb(22,178,216)" stroke="rgb(22,178,216)" stroke-width="1" opacity="0.7098039215686275" d="M 1940.5 2967 L 1949 2978.5 L 1946 2976.5 L 1940.5 2967 Z " /><path fill="rgb(22,178,216)" stroke="rgb(22,178,216)" stroke-width="1" opacity="0.7098039215686275" d="M 594.5 2971 L 597 2971.5 L 594.5 2972 L 594.5 2971 Z " /><path fill="rgb(22,178,216)" stroke="rgb(22,178,216)" stroke-width="1" opacity="0.7098039215686275" d="M 590.5 2972 L 593 2972.5 L 587.5 2974 L 587.5 2973 L 590.5 2972 Z " /><path fill="rgb(22,178,216)" stroke="rgb(22,178,216)" stroke-width="1" opacity="0.7098039215686275" d="M 582.5 2974 L 586 2974.5 L 582.5 2975 L 582.5 2974 Z " /><path fill="rgb(22,178,216)" stroke="rgb(22,178,216)" stroke-width="1" opacity="0.7098039215686275" d="M 577.5 2975 L 581 2975.5 L 577.5 2976 L 577.5 2975 Z " /><path fill="rgb(22,178,216)" stroke="rgb(22,178,216)" stroke-width="1" opacity="0.7098039215686275" d="M 572.5 2976 L 576 2976.5 L 572.5 2977 L 572.5 2976 Z " /><path fill="rgb(22,178,216)" stroke="rgb(22,178,216)" stroke-width="1" opacity="0.7098039215686275" d="M 566.5 2977 L 571 2977.5 L 566.5 2978 L 566.5 2977 Z " /><path fill="rgb(22,178,216)" stroke="rgb(22,178,216)" stroke-width="1" opacity="0.7098039215686275" d="M 557.5 2978 L 564 2978.5 L 557.5 2979 L 557.5 2978 Z " /><path fill="rgb(22,178,216)" stroke="rgb(22,178,216)" stroke-width="1" opacity="0.7098039215686275" d="M 542.5 2979 L 555 2979.5 L 542.5 2980 L 542.5 2979 Z " /><path fill="rgb(22,178,216)" stroke="rgb(22,178,216)" stroke-width="1" opacity="0.7098039215686275" d="M 384.5 2980 L 385 3173 L 232 3172.5 L 384 3172 L 384.5 2980 Z " /><path fill="rgb(22,178,216)" stroke="rgb(22,178,216)" stroke-width="1" opacity="0.7098039215686275" d="M 1949.5 2980 L 1960 2994.5 L 1957 2992.5 L 1949.5 2980 Z " /><path fill="rgb(22,178,216)" stroke="rgb(22,178,216)" stroke-width="1" opacity="0.7098039215686275" d="M 1960.5 2996 L 1969 3007.5 L 1966 3005.5 L 1960.5 2996 Z " /><path fill="rgb(22,178,216)" stroke="rgb(22,178,216)" stroke-width="1" opacity="0.7098039215686275" d="M 1969.5 3009 L 1980 3023.5 L 1977 3021.5 L 1969.5 3009 Z " /><path fill="rgb(22,178,216)" stroke="rgb(22,178,216)" stroke-width="1" opacity="0.7098039215686275" d="M 1980.5 3025 L 1991 3039.5 L 1988 3037.5 L 1980.5 3025 Z " /><path fill="rgb(22,178,216)" stroke="rgb(22,178,216)" stroke-width="1" opacity="0.7098039215686275" d="M 1991.5 3041 L 2000 3052.5 L 1997 3050.5 L 1991.5 3041 Z " /><path fill="rgb(22,178,216)" stroke="rgb(22,178,216)" stroke-width="1" opacity="0.7098039215686275" d="M 2000.5 3054 L 2011 3068.5 L 2008 3066.5 L 2000.5 3054 Z " /><path fill="rgb(22,178,216)" stroke="rgb(22,178,216)" stroke-width="1" opacity="0.7098039215686275" d="M 2011.5 3070 L 2020 3081.5 L 2017 3079.5 L 2011.5 3070 Z " /><path fill="rgb(22,178,216)" stroke="rgb(22,178,216)" stroke-width="1" opacity="0.7098039215686275" d="M 2020.5 3083 L 2031 3097.5 L 2028 3095.5 L 2020.5 3083 Z " /><path fill="rgb(22,178,216)" stroke="rgb(22,178,216)" stroke-width="1" opacity="0.7098039215686275" d="M 2031.5 3099 L 2042 3113.5 L 2039 3111.5 L 2031.5 3099 Z " /><path fill="rgb(22,178,216)" stroke="rgb(22,178,216)" stroke-width="1" opacity="0.7098039215686275" d="M 2042.5 3115 L 2051 3126.5 L 2048 3124.5 L 2042.5 3115 Z " /><path fill="rgb(22,178,216)" stroke="rgb(22,178,216)" stroke-width="1" opacity="0.7098039215686275" d="M 2051.5 3128 L 2062 3142.5 L 2059 3140.5 L 2051.5 3128 Z " /><path fill="rgb(22,178,216)" stroke="rgb(22,178,216)" stroke-width="1" opacity="0.7098039215686275" d="M 2062.5 3144 L 2071 3155.5 L 2068 3153.5 L 2062.5 3144 Z " /><path fill="rgb(22,178,216)" stroke="rgb(22,178,216)" stroke-width="1" opacity="0.7098039215686275" d="M 1832.5 3148 L 1833 3173 L 1680 3172.5 L 1832 3172 L 1832.5 3148 Z " /><path fill="rgb(22,178,216)" stroke="rgb(22,178,216)" stroke-width="1" opacity="0.7098039215686275" d="M 2071.5 3157 L 2072.5 3159 L 2071.5 3157 Z " /><path fill="rgb(0,174,239)" stroke="rgb(0,174,239)" stroke-width="1" opacity="1" d="M 818.5 902 L 858.5 903 L 859.5 904 L 875.5 905 L 896.5 909 Q 937.6 919.4 970 938.5 L 931 1064 L 895.5 1046 L 872.5 1038 L 845.5 1033 L 818.5 1032 L 817.5 1033 L 802.5 1033 L 801.5 1034 L 780.5 1036 L 735.5 1047 Q 682.2 1064.4 639 1091 L 639 955.5 L 640.5 954 Q 680.7 932.2 728.5 918 L 774.5 907 L 793.5 905 L 794.5 904 L 802.5 904 L 803.5 903 L 817.5 903 L 818.5 902 Z " /><path fill="rgb(0,174,239)" stroke="rgb(0,174,239)" stroke-width="1" opacity="1" d="M 1237.5 902 L 1273.5 903 L 1274.5 904 L 1282.5 904 L 1283.5 905 L 1300.5 907 L 1324.5 913 L 1351.5 922 Q 1383.8 936.2 1419.5 947 L 1452.5 954 L 1485.5 956 L 1486.5 955 L 1505.5 954 L 1527.5 948 L 1545.5 939 L 1573.5 921 Q 1586.9 913.4 1603.5 909 L 1622.5 905 L 1637.5 904 L 1638.5 903 L 1680.5 902 L 1681.5 903 L 1698.5 903 L 1699.5 904 L 1723.5 906 L 1749.5 911 L 1767.5 916 Q 1792.9 924.1 1814.5 936 Q 1829.8 944.2 1842 955.5 L 1842 1090.5 L 1840.5 1091 Q 1810.4 1066.1 1770.5 1051 L 1742.5 1042 L 1719.5 1037 L 1697.5 1035 L 1696.5 1034 L 1677.5 1034 L 1674.5 1033 L 1673.5 1034 L 1655.5 1034 L 1654.5 1035 L 1641.5 1036 L 1613.5 1044 L 1596.5 1052 L 1566.5 1070 L 1566 1068.5 L 1603 976 L 1379.5 1066 Q 1348.4 1047.1 1307.5 1038 L 1289.5 1036 L 1288.5 1035 L 1279.5 1035 L 1278.5 1034 L 1229.5 1034 L 1228.5 1035 L 1218.5 1035 L 1217.5 1036 L 1199.5 1038 L 1175.5 1044 Q 1147.3 1052.8 1123.5 1066 L 1123 1063.5 L 1190 908 L 1204.5 905 L 1220.5 904 L 1221.5 903 L 1236.5 903 L 1237.5 902 Z " /><path fill="rgb(0,174,239)" stroke="rgb(0,174,239)" stroke-width="1" opacity="1" d="M 827.5 1219 L 831.5 1220 L 855.5 1220 L 856.5 1221 L 866.5 1221 L 867.5 1222 L 880 1223 L 879 1230.5 L 841 1350 L 806.5 1350 L 805.5 1351 L 788.5 1352 L 766.5 1356 L 739.5 1363 Q 683.8 1380.5 639 1408 L 639 1272.5 L 640.5 1272 L 662.5 1260 L 685.5 1250 L 739.5 1232 L 781.5 1223 L 805.5 1221 L 806.5 1220 L 826.5 1220 L 827.5 1219 Z " /><path fill="rgb(0,174,239)" stroke="rgb(0,174,239)" stroke-width="1" opacity="1" d="M 1666.5 1219 L 1670.5 1220 L 1695.5 1220 L 1696.5 1221 L 1715.5 1222 L 1716.5 1223 L 1739.5 1226 L 1763.5 1232 Q 1788.9 1239.6 1810.5 1251 Q 1828 1260 1842 1272.5 L 1841.5 1409 Q 1803.7 1376.8 1749.5 1361 L 1734.5 1357 L 1705.5 1352 L 1696.5 1352 L 1695.5 1351 L 1657.5 1351 L 1656.5 1352 L 1648.5 1352 L 1637.5 1354 L 1611.5 1362 Q 1584.2 1374.7 1560.5 1391 L 1534.5 1402 L 1505.5 1408 L 1467.5 1409 L 1466.5 1408 L 1447.5 1407 L 1433 1404 L 1485.5 1273 L 1506.5 1271 L 1530.5 1264 L 1568.5 1241 Q 1582.9 1232.4 1600.5 1227 L 1630.5 1221 L 1665.5 1220 L 1666.5 1219 Z " /><path fill="rgb(0,174,239)" stroke="rgb(0,174,239)" stroke-width="1" opacity="1" d="M 1332.5 1264 Q 1336.7 1262.7 1335 1267.5 L 1317 1357 L 1294.5 1353 L 1277.5 1352 L 1276.5 1351 L 1231.5 1351 L 1230.5 1352 L 1220.5 1352 L 1219.5 1353 L 1200.5 1355 L 1179.5 1360 L 1139.5 1375 L 1100.5 1394 L 1071.5 1404 L 1049.5 1408 L 1039.5 1408 L 1038.5 1409 L 1015.5 1409 L 1007 1407.5 L 1332.5 1264 Z " /><path fill="rgb(0,174,239)" stroke="rgb(0,174,239)" stroke-width="1" opacity="1" d="M 819.5 1536 L 840.5 1536 L 841.5 1537 L 867.5 1538 L 904.5 1545 L 936.5 1556 Q 965.9 1572.1 998.5 1585 L 1014.5 1589 L 1033.5 1590 L 1034.5 1589 L 1048.5 1588 L 1064.5 1584 L 1146.5 1553 L 1178.5 1544 L 1204.5 1539 L 1220.5 1538 L 1221.5 1537 L 1258.5 1536 L 1259.5 1537 L 1273.5 1537 L 1281 1538.5 L 1255 1668 L 1220.5 1669 L 1219.5 1670 L 1200.5 1672 L 1179.5 1677 L 1146.5 1689 L 1103.5 1710 L 1068.5 1722 L 1051.5 1725 L 1043.5 1725 L 1042.5 1726 L 1011.5 1726 L 1010.5 1725 L 1001.5 1725 L 985.5 1722 L 963.5 1715 L 903.5 1684 L 874.5 1673 L 843.5 1667 L 805.5 1667 L 804.5 1668 L 795.5 1668 L 766.5 1673 L 721.5 1686 L 682.5 1702 Q 659.3 1712.3 639.5 1726 L 639 1589 Q 679.4 1566.6 728.5 1552 L 774.5 1541 L 793.5 1539 L 794.5 1538 L 803.5 1538 L 804.5 1537 L 818.5 1537 L 819.5 1536 Z " /><path fill="rgb(0,174,239)" stroke="rgb(0,174,239)" stroke-width="1" opacity="1" d="M 1655.5 1536 L 1680.5 1536 L 1681.5 1537 L 1708.5 1538 L 1709.5 1539 L 1716.5 1539 L 1717.5 1540 L 1740.5 1543 L 1767.5 1550 Q 1791.8 1557.7 1812.5 1569 Q 1829.1 1577.4 1842 1589.5 L 1841.5 1726 Q 1804.3 1695.2 1752.5 1679 L 1724.5 1672 L 1705.5 1670 L 1704.5 1669 L 1695.5 1669 L 1694.5 1668 L 1657.5 1668 L 1656.5 1669 L 1648.5 1669 L 1637.5 1671 L 1609.5 1680 L 1593.5 1688 L 1564.5 1706 Q 1548.4 1715.4 1528.5 1721 L 1507.5 1725 L 1498.5 1725 L 1497.5 1726 L 1463.5 1726 L 1462.5 1725 L 1453.5 1725 L 1452.5 1724 L 1435.5 1722 L 1414.5 1716 L 1397.5 1709 L 1353.5 1687 L 1324 1676.5 L 1369.5 1563 Q 1398 1575.5 1430.5 1584 L 1459.5 1589 L 1488.5 1590 L 1489.5 1589 L 1499.5 1589 L 1500.5 1588 L 1511.5 1587 L 1532.5 1580 L 1573.5 1555 Q 1587.1 1547.6 1603.5 1543 L 1629.5 1538 L 1654.5 1537 L 1655.5 1536 Z " /><path fill="rgb(0,174,239)" stroke="rgb(0,174,239)" stroke-width="1" opacity="1" d="M 232 2551 L 554.5 2551 L 555.5 2552 L 570.5 2553 L 600.5 2560 L 631.5 2573 Q 663.6 2589.9 686 2616.5 Q 711.6 2645.9 725 2687.5 L 731 2710.5 L 731 2715.5 L 734 2728.5 L 735 2750.5 L 736 2751.5 L 736 2776.5 L 735 2777.5 L 734 2799.5 L 730 2822.5 L 717 2862.5 Q 699.5 2902.5 669.5 2930 Q 646.8 2950.8 616.5 2964 L 597.5 2971 L 571.5 2977 L 557.5 2978 L 556.5 2979 L 542.5 2979 L 541.5 2980 L 384 2980 L 384 3172 L 232 3172 L 232 2551 Z M 384 2681 L 384 2849 L 386 2850 L 509 2850 L 534 2845 Q 546 2841 555 2833 Q 567 2822 574 2807 L 579 2792 L 581 2781 L 581 2771 L 582 2770 Q 583 2727 563 2705 L 548 2691 L 538 2686 L 519 2681 L 384 2681 Z " /><path fill="rgb(0,174,239)" stroke="rgb(0,174,239)" stroke-width="1" opacity="1" d="M 974 2551 L 1124.5 2551 L 1125 2551.5 L 1125 3040.5 L 1126.5 3042 L 1422 3042 L 1422 3171.5 L 1421.5 3172 L 974 3172 L 974 2551 Z " /><path fill="rgb(0,174,239)" stroke="rgb(0,174,239)" stroke-width="1" opacity="1" d="M 1680 2551 L 1834.5 2551 L 1835 2552.5 L 2096.5 2929 L 2097 2579.5 L 2096 2578.5 L 2096 2551 L 2247.5 2551 L 2248 2551.5 L 2248 3172 L 2082.5 3172 L 2080 3169.5 L 1831.5 2809 L 1831 3018.5 L 1832 3019.5 L 1832 3172 L 1680.5 3172 L 1680 3171.5 L 1680 2551 Z " /></svg>